<?xml version="1.0" standalone="no"?>
<svg xmlns="http://www.w3.org/2000/svg" width="1436" height="1432" version="1.0" viewBox="0 0 1077 1074">
  <path fill="#030303" d="M857 1031c-17-3-32-8-46-17-28-17-48-43-60-77-7-22-10-41-9-66 2-35 11-68 28-97 7-13 19-30 28-40 26-29 63-51 100-59 13-2 39-2 53 1 50 11 88 49 102 102 7 27 9 50 5 75-10 69-48 126-105 159-10 5-29 13-38 15-18 5-42 6-58 4Zm41-20c20-3 39-11 58-24 10-6 26-20 31-25 1-1 4-5 7-9 21-25 36-55 43-90 3-14 3-54 1-67-3-15-9-33-15-43-17-31-41-50-72-58-10-2-13-2-28-2s-17 0-28 3c-33 8-64 29-85 54-14 16-29 41-36 58-11 28-16 65-12 93 8 48 29 82 66 100 20 11 46 15 70 10Zm-549 14c-13-1-32-6-42-12-19-9-40-27-51-43-10-15-18-34-23-53-6-22-6-57-2-81 7-41 30-84 60-115 10-10 25-22 35-28 5-3 5-3 7-16 1-7 4-18 11-51 9-40 9-63 1-70-2-2-12-8-23-14-15-7-32-17-37-20l-4-2-12 13c-23 26-35 39-50 52-5 5-12 11-16 15-17 15-77 69-90 80-3 3-7 6-7 7-1 0-5 4-21 18-2 1-4 3-4 4-1 0-10 8-21 18-11 9-23 20-28 24-11 10-18 15-19 16h-1v-1c0-1 13-20 24-38 2-3 5-8 7-10 22-36 69-107 93-141 10-15 21-30 24-34 3-5 10-14 15-21 5-8 10-16 12-18s7-10 12-17l9-12-6-7c-15-16-20-40-11-58 5-10 17-19 30-22 9-2 26 2 49 12 8 4 8 4 17 3 5-1 12-1 16-1 6 1 8 1 13 4 12 8 18 16 18 28 0 9-2 7 38 38 23 19 37 33 42 43 5 9 7 18 7 29 0 9-2 25-5 32-4 14-6 20-9 27-2 3-4 8-5 11-1 2-5 12-10 22-12 26-14 31-15 33l-1 2h2c11-4 38-5 52-3 53 9 94 48 108 103 6 20 7 29 7 50 0 20-1 30-6 52-7 25-15 43-30 66-19 29-39 48-68 65-28 17-62 24-92 21Zm41-21c14-3 27-8 40-16 16-9 23-14 36-27 27-26 47-61 56-98 4-21 6-50 2-70-2-14-8-32-13-41-15-30-40-53-69-61-21-7-46-6-68 1-8 2-8 2-12 11-2 5-6 12-9 17-4 7-8 13-28 43l-6 10h-1c0-1 0-4 1-8s2-12 3-18c0-7 1-14 2-16 0-3 1-8 2-10v-5l-2 1c-24 19-43 42-57 71-13 24-20 55-20 84 0 55 25 102 66 123 13 7 20 9 40 11 6 1 29 0 37-2Zm232-10c-3-5-9-20-19-56-10-34-14-46-18-57-1-7-4-17-5-23-3-12-12-47-19-74-14-51-22-86-27-110-1-7-3-17-5-23-5-21-7-33-8-48 0-16 1-27 6-35 3-7 13-16 20-20 6-3 7-3 11-2 11 3 24 13 30 25 4 7 9 25 11 37 1 5 3 18 4 31 1 12 3 31 4 42 2 19 6 79 9 124 3 34 8 138 9 162 0 11 0 22-1 24l-1 4-1-1Zm15-182c1-8 4-15 25-56 11-24 27-56 35-73l15-30v-1s-8-2-16-6c-38-13-54-20-68-30-19-13-25-23-22-38 1-8 5-14 11-21 5-5 5-5 17-6 28-1 53 7 85 28 20 13 28 19 37 29 11 12 17 24 17 37 0 17-8 37-22 56-7 9-14 17-49 54-16 15-34 34-41 42-12 12-21 19-24 19h-1l1-4Zm330-156c-15-1-40-5-50-7-63-15-96-31-124-59-39-38-63-83-57-104 3-12 22-22 37-19 8 1 17 7 22 15 5 5 12 18 23 44 21 45 56 75 127 109 18 8 25 11 42 13 14 2 23 4 27 6l2 2h-7c-8 1-27 1-42 0ZM78 542c-1 0-1-3-1-5v-5h2c2 0 3 1 4 1 1 2 1 7 0 9-2 1-4 1-5 0Zm797-26c-14-3-26-9-37-20-6-6-9-10-12-17-6-12-7-18-7-30s2-20 7-31c8-16 28-32 44-35 3-1 7-2 9-2 8-2 25 1 38 7 11 6 24 18 29 29 11 20 11 46-1 67-9 14-25 26-41 30-8 3-22 3-29 2ZM205 382c-2-2-10-7-18-12-23-15-38-30-56-54-7-9-10-13-13-22-2-5-4-11-4-11 0-1-1-4-1-6-1-2-2-9-3-16-2-18 1-34 8-46 13-22 38-39 73-50 17-6 22-6 39-6 13 0 16 0 23 2 10 3 14 5 19 10 5 6 8 12 9 19 0 6-2 12-9 18-10 9-19 12-41 15-30 3-43 5-54 10-8 4-13 8-16 16-3 6-3 7-4 18 0 9 0 13 2 20 5 19 14 41 26 60 2 2 5 8 8 12 2 4 7 11 10 16l7 9h-1l-4-2Zm253-27c-12-4-16-6-26-16-13-13-26-33-31-49-5-18-7-36-5-47 2-8 6-17 10-21 2-3 10-8 13-10 7-3 16 0 23 7s11 18 15 40c3 17 6 26 10 32 11 17 20 20 38 14 16-5 43-20 58-31 15-12 38-39 42-50l1-4h5v1c0 1 0 2-1 2 0 1-1 5-1 10-2 15-8 31-21 50-21 31-39 48-65 61-25 12-48 16-65 11Zm-91-179c-6-1-16-4-21-7-23-11-37-35-37-60 0-7 2-22 4-23 0-1 1-3 2-5 3-10 16-24 27-31 6-4 18-8 22-8h2v-2h22v2h2c4 0 16 4 22 8 14 9 24 22 30 39 3 9 4 29 0 39-7 23-25 41-47 47-7 1-21 2-28 1Z"/>
  <path fill="#383838" d="M870 1031h14l8 1h-28l6-1Zm-13-1h3l2 1h-6l1-1Zm39 0h2l2 1h-5l1-1Zm-45-1h2l2 1h-5l1-1Zm51 0h2l2 1h-5l1-1Zm-61-2c-3 0-6-1-7-2l-1-1 2 1c2 0 6 1 9 2l6 2h-2c-1 0-4-1-7-2Zm73-1c5-1 9-2 10-2v1l-5 1c-3 1-7 2-9 2l-4 1 8-3Zm-566-1h-5 42-5c-7 1-26 1-32 0Zm-10-2h3l2 1h-6l1-1Zm48 0h3l2 1h-6l1-1Zm443 0-1-1h1s1 0 2 1l2 1h-1c-1 0-2 0-3-1Zm-495-1h2v1h-3l1-1Zm59 0h2v1h-3l1-1Zm4-1h2v1h-3l1-1Zm421-3c-4-2-8-4-8-5l-1-1 9 5c4 2 9 4 9 5h-1l-8-4Zm-492 2h2v1h-3l1-1Zm75 0h2v1h-3l1-1Zm-85-2c-7-3-21-10-23-13l-1-1 4 2c8 5 15 9 22 11l6 2v1h-1s-3-1-7-2Zm97-2c5-1 10-3 10-3v1l-8 3c-5 2-10 3-10 3h-1l9-4Zm523 3c1-1 5-2 8-4l5-2v1s-13 6-14 6l1-1Zm-62-6h9l5 1h-18l4-1Zm-14-1h4l2 1h-7l1-1Zm32 0h3l2 1h-6l1-1Zm58 1c0-1 3-2 6-4 10-6 23-16 32-24l9-8h1v1l-10 8c-10 9-22 18-32 24l-6 3Zm-151-7c-4-3-10-9-14-13l-6-6 8 7c5 5 11 10 14 12s6 5 6 5l1 1c-1 0-4-3-9-6Zm46 4c-4-2-7-3-8-4h2c1 1 6 2 11 4l9 2h-3c-2 0-7-1-11-2Zm59 1c3-1 8-3 12-4s7-2 7-2v1l-8 2c-4 2-10 3-12 3l-5 1 6-1Zm-475-1c1-1 4-2 6-4l5-2c0 1-10 7-11 7h-1l1-1Zm-69-3h8l5 1h-17l4-1Zm-12-1h5l3 1h-10l2-1Zm27 0h4l3 1h-9l2-1Zm-34-1h3l2 1h-6l1-1Zm43 0h2l2 1h-5l1-1Zm442-3c-5-3-9-6-10-7l-1-1 1 1c1 0 6 3 11 6l10 5h-1c-1 0-5-2-10-4Zm-489 2h2v1h-3l1-1Zm52 0h2l2 1h-5l1-1Zm-103-3c-10-7-26-25-29-31l-1-1 2 2c1 1 5 6 8 10 5 6 11 11 23 21l3 2h-1s-3-2-5-3Zm108 2h2v1h-3l1-1Zm47 1c0-1 6-5 13-9l3-1-3 2c-2 1-6 4-8 5l-5 3Zm-116-2c-13-5-27-14-38-25-7-6-18-20-21-25l-1-3c1 0 3 4 6 8 13 20 30 34 53 43l8 3h-2c-1 0-3-1-5-1Zm81-3c5-1 10-3 10-3h1l-3 2c-3 1-15 5-16 5h-1l9-4Zm523 4c0-1 4-2 8-4l7-4c0 1-14 8-15 8Zm-512-7v-1h2l1-1-1 1c0 1-1 1-1 1h-1Zm205-3c-1-1-3-5-4-7l-2-5v-1h1l2 6 3 7 1-1h1v3c-1 0-2-1-2-2Zm323 2c0-1 5-4 11-8 11-7 29-22 31-26l1-1 1 1-10 9c-10 9-24 20-31 24l-3 1Zm-521-3c1-1 5-3 8-4l5-3-1 1c-2 1-13 8-14 8h-1l3-2Zm33 2c0-1 4-4 9-8 9-7 23-22 31-32 3-3 5-6 6-6l-1 1c-12 16-28 33-41 42l-4 3Zm350-5c-7-6-15-14-18-18l-1-2 10 10c5 5 11 11 13 12l4 3h-1c-1 0-4-2-7-5Zm-183-16v-17l1 8v18l-1 9v-18Zm-187 12c0-1 2-2 5-4l5-3-1 1c0 1-3 3-5 4l-4 2Zm337-4c-1-2-3-4-3-5l-1-1 2 2c1 1 3 4 4 5l2 3c-1 0-2-2-4-4Zm-322-7c17-14 34-33 45-51 3-5 5-9 6-9l-2 3c-9 18-34 47-48 57l-5 4 4-4Zm551-3 4-4-3 4c-3 2-5 4-5 4l4-4Zm-236 0c-1-1-3-5-4-7l-2-4c1 1 3 4 5 7l4 7c-1 0-2-1-3-3Zm-514-6c-1-1-3-5-4-7l-2-4c1 1 3 4 5 7l4 7c-1 0-2-1-3-3Zm532 0c-2-2-4-5-4-7l-2-3c1 0 3 3 5 7l4 6c-1 0-2-1-3-3Zm-176-7c-2-5-3-9-3-10h1l2 9c2 5 3 9 3 10h-1l-2-9Zm402 3c3-4 7-10 10-13 2-4 4-7 5-7l-2 3c-4 7-13 19-15 21l-2 2 4-6Zm-18-7c3-3 5-6 6-6l-2 3c-1 1-3 4-5 6l-3 3 4-6Zm-237-4-2-5v-1h1l2 5 2 5v1h-1l-2-5Zm-133-6v-7l1 3v7l-1 4v-7Zm151 1c-2-3-3-7-3-8l-1-2c1 0 2 4 4 8l3 7h-1s-1-2-2-5Zm-533-4-3-7v-1h1l3 8 3 7v1h-1l-3-8Zm20 0c-2-4-4-9-5-10v-2s3 5 5 10l4 9h-1s-2-3-3-7Zm247-1c2-4 4-7 5-7l-1 1c-2 4-8 13-9 13l5-7Zm495 2c2-3 4-6 5-7l1-1-1 1c-1 3-8 12-9 12l4-5Zm-400-3v-1l1 1v2h-1v-2Zm426-4c2-4 4-7 4-7l1-1-2 5c-2 2-4 5-4 7l-2 2 3-6Zm-429-7c-2-5-3-9-3-10h1l2 9c2 5 3 9 3 10h-1l-2-9Zm410 3c1-1 2-4 3-6l2-3h1v1l-3 5c-2 3-3 5-4 5l1-2Zm-494-3c1-3 3-6 3-6l1-1-2 4c-1 2-3 4-4 6l-1 2 3-5Zm231-4c-1-5-2-11-2-13l-1-5 1 2c0 1 1 6 3 12 1 6 2 11 2 12h-1l-2-8Zm-125 0v-6l1 3v6l-1 4v-7Zm-389-6c-1-5-2-11-2-13l-1-5 1 2c4 17 5 23 5 24h-1l-2-8Zm805-1 4-9h1v1l-4 8c-2 5-4 9-4 9h-1l4-9Zm-274-1c-1-5-2-10-2-12v-2l3 11 2 12h-1l-2-9Zm257-5 4-10 1 1-4 9-5 10h-1l5-10Zm-771-1c-1-5-2-12-2-15l-1-7 1 8c1 5 3 12 3 15 1 4 2 7 2 8h-1l-2-9Zm275 0 4-8v1l-3 7c-2 5-4 8-4 8h-1l4-8Zm-18-5 3-7h1v1l-2 5c-2 3-4 6-4 7l-1 1 3-7Zm114 0v-7l1 3v7l-1 4v-7Zm-30-6c-1-4-2-7-2-8h1l2 8c1 4 2 7 2 8h-1l-2-8Zm452 8c0-1 0-2 1-3l1-1v1s0 1-1 2l-1 2v-1Zm-300-6v-3l1 1v4l-1 2v-4Zm302 1s2-5 3-11l4-10v1s-1 5-3 10l-3 10h-1Zm-284-4v-4l1 2v4l-1 2v-4Zm-532-3v-3l1 1v4l-1 2v-4Zm798 3c0-1 0-2 1-3l1-1v1s0 1-1 2l-1 2v-1Zm-496-3c1-1 2-5 3-9l2-8h1c0 1-1 5-2 9l-3 9h-1v-1Zm211-6v-5l1 2v6l-1 3v-6Zm288 1c0-1 1-5 3-9l2-7v1c0 1-1 6-3 10l-2 8h-1l1-3Zm-517 2s2-5 3-11l4-10v1c0 2-6 19-6 20h-1Zm107-7v-7l1 3v8l-1 4v-8Zm-32 2c-1-1-1-2-1-3h1v3c1 1 1 2 1 3h-1v-3Zm172-8v-12l1 6v12l-1 6v-12Zm-532 5v-5l1 2v6l-1 3v-6Zm18-12v-12l1 6v12l-1 7v-13Zm291 3v-1l1 1v2h-1v-2Zm46-2c-1-5-5-22-5-23v-1l4 13c1 7 3 14 3 14l-1 1-1-4Zm34-40c-1-23-2-42-2-43h1v10c3 39 4 68 4 72v4l-3-43Zm418 38v-1l1 1v2h-1v-2Zm-293-4v-5l1 2v6l-1 3v-6Zm294 0v-1l1 1v2h-1v-2Zm19 0 2-12c2-13 2-38 0-51-1-6-1-10-1-11h1l1 12c3 15 2 31 0 48-1 8-2 15-3 15v-1Zm-515-4v-1l1 1v2h-1v-2Zm497 0v-2l1 1v2l-1 2v-3Zm-809-3v-5l1 2v5l-1 3v-5Zm294 0v-1l1 1v2h-1v-2Zm239-1v-4l1 2v4l-1 2v-4Zm-220 1c0-1 1-6 2-12 2-14 2-40 0-54-1-6-2-11-2-11v-1l2 6c2 11 3 31 2 46-1 8-2 17-2 21l-2 7v-2Zm497-2v-3l1 1v3l-1 2v-3Zm-515-2v-2l1 1v2l-1 2v-3Zm220-1v-3l1 1v4l-1 2v-4Zm-496-2c0-4 2-15 4-23l1-7h1c0 1-1 4-1 8-1 3-3 11-3 16l-2 9v-3Zm515-4c1-2 2-8 3-12l1-7 1 1s-1 6-3 12l-2 12v-6Zm277-17v-29l-1-7 1 3c2 8 3 29 2 41-1 8-1 14-1 14h-1v-22Zm-514 16c2-19 2-39 0-54l-1-4 2 6c2 9 2 39 0 50l-2 8 1-6Zm-296 0v-3l1 1v4l-1 2v-4Zm515 1v-3l1 1v3l-1 2v-3Zm-167-3v-1l1 1v2h-1v-2Zm168-3c0-1 1-6 2-11l2-9 1 1s-1 5-2 11l-3 11v-3Zm-514-4c0-3 1-9 2-14l2-9h1s-1 7-3 15l-3 14 1-6Zm344-1v-1l1 1v2h-1v-2Zm-3-13c-2-6-3-11-3-12h1l3 11c1 6 2 11 2 12h-1l-2-11Zm195 2v-1l1 1v2h-1v-2Zm-514-7v-1l1 1v2h-1v-2Zm497 0v-1l1 1v2h-1v-2Zm-113-8c0-3 1-5 1-6l1-2v1c0 1 0 3-1 5 0 3-1 5 0 5l4-2c5-3 83-83 104-106l5-6-3 4c-4 6-16 18-46 50-16 15-34 34-41 42-12 12-21 19-24 19h-1l1-4Zm134 2c0-1 1-4 3-6l2-5-1 2c0 1-1 4-2 6l-2 5v-2Zm-515-4c1-1 2-5 4-9l2-6h1c0 1-6 16-7 17v1-3Zm312 0v-1l1 1v2h-1v-2Zm185 1s1-5 3-9l3-8h1c0 1-2 5-3 10l-4 9v-2Zm-516 0c0-1 5-14 8-21l2-6h1c0 1-8 20-10 26l-1 2v-1Zm329-8v-1l1 1v2h-1v-2Zm-3-13c-2-5-3-10-3-11h1l3 10c1 6 2 11 2 11l-1 1-2-11Zm77 10c0-1 19-39 19-39h1l-2 3c-1 2-5 11-10 20l-8 17v-1Zm137-1s0-1 1-1l1-1-1 1v2h-1v-1Zm2-3c0-2 5-10 7-12l1-2-4 7c-2 3-3 7-4 7Zm258-3v-2l1 1v2l-1 2v-3Zm18-3v-2l1 1v2l-1 2v-3Zm-790-1c0-1 16-29 18-29l-4 7c-2 3-7 10-9 15l-5 9v-2Zm771-1v-1l1 1v2h-1v-2Zm-513-1v-2l1 1v2l-1 2v-3Zm240-1c1-3 6-11 7-11l-3 7c-2 4-4 7-4 7h-1l1-3Zm-149-4v-7l1 3v7l-1 4v-7Zm440 3v-1l1 1v2h-1v-2Zm-19-1v-1l1 1v2h-1v-2Zm-513-2v-1l1 1v2h-1v-2Zm-273-2c1-3 6-11 7-11l-3 7c-2 4-4 7-4 7h-1l1-3Zm783-5c-1-4-2-8-3-9v-1l1 1c1 2 5 15 5 16h-1l-2-7Zm-492 4v-1l1 1v2h-1v-2Zm248 0c2-4 9-14 10-14l-5 8c-3 4-5 8-6 8l1-2Zm264-2v-1l1 1v2h-1v-2Zm-493-1v-1l1 1v2h-1v-2Zm-39-1v-1l1 1v2h-1v-2Zm19 0v-1l1 1v2h-1v-2Zm509-9c-2-5-3-10-3-10h1l3 9c2 4 3 9 3 9v1l-4-9Zm-275 3c3-6 13-20 14-20l-4 6c-3 4-6 9-8 13-2 3-4 6-5 6l3-5Zm-454-2c0-4 1-8 1-9l1-2v6l-1 6c1 0 2-2 4-5l14-21c11-18 16-26 22-38 4-9 7-12 10-12h2l-3 1c-2 1-4 3-7 10-2 5-6 12-9 17-4 7-8 13-28 43-3 6-6 10-7 10l1-6Zm198-1c-2-7-7-18-12-25l-2-4 2 2c5 5 16 30 15 33l-1 1-2-7Zm40 3v-1l1 1v2h-1v-2Zm-20-1v-1l1 1v2h-1v-2Zm76-2v-4l1 2v4l-1 3v-5Zm-354-3c1-3 3-6 4-7l2-2-1 2c-1 1-3 5-4 7-2 3-3 5-4 5l3-5Zm-247 3c0-1 13-20 24-38 2-3 5-8 7-10 22-36 69-107 93-141 10-15 21-30 24-34 3-5 10-14 15-21 5-8 10-16 12-18s7-10 12-17l9-12-6-7c-15-16-20-40-11-58 5-10 17-19 30-22 9-2 26 2 49 12 8 4 8 4 17 3 5-1 12-1 16-1 6 1 8 1 13 4 12 8 18 16 18 28 0 9-2 7 38 38 40 32 49 46 49 74v10l-1-11c-1-15-3-22-7-30-4-7-17-21-28-31-4-2-7-5-7-5s-8-7-18-14c-9-7-19-16-22-18-5-4-5-4-5-11 0-13-6-21-19-29-6-4-11-4-25-3-11 1-12 1-16-1-8-3-14-6-15-6s-3-1-4-1c-10-4-19-6-27-6-9 0-10 0-16 3-9 4-16 11-20 19-3 7-4 19-2 28 1 9 8 20 14 28l6 6-1 1c-2 4-10 16-14 21 0 0-1 1-1 2l-6 8c-11 15-13 18-16 23-2 2-7 10-11 16-13 18-15 21-19 26-19 28-36 53-49 73-14 21-21 32-25 39-3 4-6 9-7 11-2 2-5 7-8 11-2 4-7 11-10 16s-6 10-7 12c-1 1-5 8-9 14-5 7-9 13-9 14l-1 3 4-4c3-3 7-7 10-9 4-3 7-6 8-7s8-7 17-15c8-7 20-18 28-24 7-6 20-18 29-25 8-8 20-19 26-24s14-12 18-16 10-9 14-12c3-3 9-9 14-13s10-9 11-10 9-8 16-15c17-15 30-28 44-43 6-6 11-12 12-13s4-5 7-8c4-4 7-7 8-7 0 0 4 2 9 5 4 2 11 6 15 8 3 2 7 4 7 4s3 2 6 3c9 4 25 14 28 16 4 5 6 10 5 25 0 7 0 15-1 15l-1 2 1-15c0-21-1-24-13-31-4-2-11-6-16-9-15-7-32-17-37-20l-4-2-12 13c-23 26-35 39-50 52-5 5-12 11-16 15-17 15-77 69-90 80-3 3-7 6-7 7-1 0-5 4-21 18-2 1-4 3-4 4-1 0-10 8-21 18-11 9-23 20-28 24-11 10-18 15-19 16h-1v-1Zm542-10c-2-5-3-10-3-11h1l3 10c1 6 2 11 2 12h-1l-2-11Zm-20 4c-1-4-2-7-3-8v-2l1 1c1 2 5 14 5 15h-1l-2-6Zm264 4c0-1 12-16 18-23 6-6 17-15 24-20l3-2c0 1-2 3-5 5-13 9-26 22-38 38l-2 3v-1Zm225-11c-6-11-15-23-24-31-8-8-14-12-24-18l-8-4c1 0 4 1 7 3 20 10 40 31 51 53l3 5v1l-5-9Zm-738 3c1-2 3-4 4-5l2-2-3 4c-2 3-4 5-4 6h-1l2-3Zm376 1s6-12 13-25l12-24c0 1-24 49-25 50v-1Zm-49-4v-4l1 2v4l-1 3v-5Zm-290-4c0-4 1-11 1-15 1-5 2-11 3-13v-5l-2 1c-9 7-18 16-25 23l-8 9 4-5c6-9 17-19 30-29l2-1h1l-2 12c-1 6-2 15-3 19 0 3-1 7-1 9l-1 2 1-7Zm-55 1c1-1 3-4 5-7l3-3-5 6c-2 4-4 7-5 7l2-3Zm772-6-4-7c1 0 3 3 5 7l3 6v1h-1l-3-7Zm-251 2c7-9 26-28 35-35l2-1-4 3c-15 14-23 22-28 28-3 4-5 7-6 7l1-2Zm-263-7-4-8 2 2c0 1 3 4 4 7l3 6v1h-1l-4-8Zm86 1v-5l1 2v6l-1 3v-6Zm-61 2v-1l1 1v2h-1v-2Zm-273-6c4-5 24-26 31-30l7-5-3 3c-2 1-7 5-12 9-4 4-11 11-16 17l-9 9 2-3Zm222-5c-5-7-19-21-26-25-3-2-6-4-6-5l4 2c5 3 28 25 30 30l2 3c-1 0-2-2-4-5Zm529-3c-7-10-20-24-29-30l-8-6-1-1 2 1c11 6 32 26 41 41l2 3c-1 0-3-4-7-8Zm-483-7c-2-6-3-11-3-12h1l2 11c2 6 3 11 3 12h-1l-2-11Zm63-15c-1-15-2-28-2-29v-2l1 1c0 1 4 52 4 54l-1 3-2-27Zm-95 14c-2-3-9-11-15-17l-10-10 4 3c7 5 22 23 26 30l1 1c-1 0-3-3-6-7Zm331-2 6-4 5-3h1v1l-6 3-6 4v-1Zm13-8 10-5 9-4 1 1-10 4-10 5v-1Zm-29-2c1-2 3-4 4-4l2-1c0 1-2 2-5 4l-4 3 3-2Zm-287-2v-1l1 1v2h-1v-2Zm-224-7c2-2 4-3 6-4l3-2v1c-1 0-3 2-6 4l-5 3 2-2Zm372 2c0-1 3-8 8-16l7-14v1s-3 7-7 15l-8 15v-1Zm151-2c3-2 28-15 29-15h2l-13 6c-7 4-14 8-16 9l-4 2 2-2Zm-85-5c2-3 4-7 5-7l-2 4c-1 2-3 5-5 7l-2 3 4-7Zm208 5-1-1h1s1 0 2 1l2 1h-1c-1 0-2 0-3-1Zm-508-4-7-3 2 1c4 1 13 5 13 5v1h-1s-4-2-7-4Zm84 2v-1l1 1v2h-1v-2Zm352-1c3-1 7-2 10-2l5-1-10 2c-5 2-10 3-10 3l5-2Zm59-1-8-2 4 1c3 0 7 1 10 2l6 2h-2c-1 0-5-1-10-3Zm-414-13c-2-8-3-14-3-15h1v1s1 6 3 13c1 7 2 13 2 13l-1 1-2-13Zm-54 8c-3-2-5-4-6-4v-1l3 1c1 1 4 3 6 4l3 3h-1s-3-2-5-3Zm426 2h3l2 1h-6l1-1Zm27 0h4l2 1h-7l1-1Zm-15-1h6l4 1h-13l3-1Zm-590-1c1 0 2-5 3-10 1-8 5-27 11-54 1-5 3-13 4-18l1-10 1 2c0 3-2 15-8 41l-4 16c0 4-1 9-2 10 0 2-1 6-1 10-1 6-3 12-4 14l-1 1v-2Zm652-2-6-4c1 0 13 6 13 7 0 0-3-2-7-3Zm-602 1c1 0 6-2 11-3 11-2 32-1 43 1l7 2v1l-8-2c-3 0-12-1-19-2-12 0-21 1-34 4h-2l2-1Zm382-7c2-3 4-8 4-10l2-5h1v1l-3 7c-2 4-4 9-5 10l-1 2 2-5Zm-296-2-9-4 2 1c3 0 16 7 16 8 0 0-5-2-9-5Zm411 1c5-2 22-6 24-6l2 1h-3c-1 0-12 3-24 6l-2 1 3-2Zm82-2-9-3h1c2 0 16 4 18 5l2 1h-1c-1 0-6-1-11-3Zm-506-4-1-1h1s1 0 2 1l2 1h-1c-1 0-2 0-3-1Zm492 0h3l2 1h-6l1-1Zm-41-1h4l2 1h-7l1-1Zm35 0h3l2 1h-6l1-1Zm-334-4v-5l1 2v5l-1 3v-5Zm312 3h12l6 1h-23l5-1Zm-471-1h2v1h-3l1-1Zm-71 0c0-1 3-8 5-13 1-2 3-6 4-9l5-10c3-7 5-12 8-18 4-10 6-15 9-20 5-10 10-29 12-39 0-3 1-7 1-7h1v2c0 3-2 13-4 19-4 13-6 19-9 26-2 3-4 8-5 11-1 2-5 12-10 22-12 26-14 31-15 33l-1 2h2c11-4 38-5 52-3 5 1 11 2 12 3l3 1-4-1c-2 0-7-1-12-2-15-2-37-1-52 3h-2Zm157-8v-2l1 1v2l-1 2v-3Zm175 0c0-1 1-3 3-6 1-3 2-5 2-5v-1l-6-2-7-2v-1c1 0 13 4 14 5 0 1-1 4-3 7l-3 6v-1Zm63-3v-2l1 1v2l-1 2v-3Zm-166-2v-4l1 2v4l-1 2v-4Zm-73 0v-1l1 1v2h-1v-2Zm240-11v-14l-1-4 1 4c2 4 2 16 1 22l-1 3v-11Zm-241 7v-1l1 1v2h-1v-2Zm455 1h15l8 1h-30l7-1Zm-22-1h5l3 1h-10l2-1Zm48-1c-2 0-9-2-16-3l-12-3 6 1c7 0 21 4 25 5l3 2h-1c-1 0-3-1-5-2Zm-59 0h4l2 1h-7l1-1Zm-8-1h3l2 1h-6l1-1Zm-417-9c-1-5-2-12-2-14l-1-4 3 12c2 7 3 13 3 14l-1 2-2-10Zm410 8h3l2 1h-6l1-1Zm-334-4v-4l1 2v4l-1 3v-5Zm318 2-10-2-1-1h2c1 0 6 1 13 2l11 3h-3c-2 0-8-1-12-2Zm58-3h2l2 1h-5l1-1Zm-5-1h2v1h-3l1-1Zm-70-1h2v1h-3l1-1Zm66 0h2v1h-3l1-1Zm-280-1c-1 0-5-2-10-3l-8-3v-1c1 0 20 7 21 8h-1s-1 0-2-1Zm272 0c-2-1-5-2-6-3l-3-2 2 1c1 0 4 1 8 3l6 2h-2c-1 0-3-1-5-1Zm-65-1h2v1h-3l1-1Zm-14-3-8-3c1 0 19 5 20 6h-2c-1 0-5-1-10-3Zm-281-3v-5l1 2v5l-1 3v-5Zm348 1-1-1 1 1h2v1h-1s-1 0-1-1Zm-282-2-1-1h1s1 0 2 1l2 1h-1c-1 0-2 0-3-1Zm272-2-6-3v-1h1l7 3 7 4h-1c-1 0-4-2-8-3Zm-287-4c-12-6-21-11-21-12l11 6c6 3 14 7 18 8l6 3h-2s-6-2-12-5Zm206 2-8-3v-1h1l8 3c4 2 8 3 8 4h-1s-4-2-8-3Zm-258-6v-4l1 2v4l-1 3v-5Zm330 3-1-1 1 1h2v1h-1s-1 0-1-1Zm-9-5-8-4-1-1 8 4c4 2 8 4 8 5 0 0-4-2-7-4Zm-84-2c-4-1-7-3-7-4l7 4c4 2 8 3 8 4h-1s-4-2-7-4Zm-315 1v-2l1 1v2l-1 2v-3Zm241-4c-4-7-13-16-22-23-11-8-36-25-46-30l-8-4c4 0 38 21 53 32 9 7 21 19 24 26l3 4v1h-1l-3-6Zm-165-8c-1-7-2-13-3-14v-3l1 3c1 4 4 21 4 23l-1 2-1-11Zm-77 7v-3l1 1v3l-1 2v-3Zm102-5c-10-8-18-17-18-22v-1l2 5c3 6 9 12 17 18 3 2 6 4 6 5 0 0-3-2-7-5Zm201 2c-3-1-6-3-6-4l-1-1 2 1c2 1 5 3 7 4 1 1 3 2 3 3 0 0-3-1-5-3Zm79 0c-3-2-5-3-5-4l5 3c2 1 5 3 5 3l1 1s-3-1-6-3Zm-383-6v-3l1 1v4l-1 2v-4Zm369-3c-5-3-8-5-8-6l3 2c9 5 13 8 13 9 0 0-4-2-8-5Zm-85-4c-11-9-31-31-40-44l-3-4 2 2c1 2 5 6 8 10 10 12 23 25 30 32 4 3 8 6 10 8l3 2h-1s-4-3-9-6Zm68-8c-11-8-22-18-28-25l-4-5 10 10c6 5 14 13 18 16 5 4 9 7 10 8l3 2h-1l-8-6Zm-352-5v-3l1 1v4l-1 2v-4Zm84-4v-5l1 2v5l-1 3v-5Zm-83-3v-2l1 1v2l-1 2v-3Zm67-7c-6-12-15-22-27-27l-5-2h1c1 0 5 1 8 3 9 5 18 14 23 23l3 8v1h-1l-2-6Zm-66 2v-1l1 1v2h-1v-2Zm83-1v-1l1 1v2h-1v-2Zm-82-2c0-2 5-11 10-16l4-4-4 5c-2 2-6 7-7 11l-3 6v-2Zm83-1c0-1 4-9 4-9h1l-2 5c-1 2-2 5-3 5v-1Zm8-13c6-8 6-8 19-9 7 0 15 0 18 1l6 1h-18c-18 0-18 0-23 5l-5 6 3-4Zm223 1c-2-3-8-12-11-17l-3-5c1 0 2 3 4 6s6 9 9 12l4 6c-1 0-2-1-3-2Zm-160-2-7-3h1c1 0 11 4 14 5l2 1h-1c-1 0-5-1-9-3Zm-10-4h2v1h-3l1-1Zm-4-1h2v1h-3l1-1Zm-124-2c2-2 12-7 15-7h2l-4 1c-2 1-7 3-9 5l-5 3 1-2Zm120 1h2v1h-3l1-1Zm97-6c-2-3-6-9-8-13l-4-7v-1h1l3 5c1 3 5 9 8 14l5 8c-1 0-3-3-5-6Zm-679-5c-1 0-1-3-1-5v-5h2c2 0 3 1 4 1 1 2 1 7 0 9-2 1-4 1-5 0Zm740-14-3-7v-1h1c0 1 2 4 3 8l4 8h-1s-2-3-4-8Zm-79-16c-4-9-5-20-3-26 1-4 7-11 10-13l2-1-5 5c-8 8-9 18-4 34 2 4 3 8 3 8h-1l-2-7Zm71-2-3-7v-1h1l3 7 3 7v1h-1l-3-7Zm73 6h7l4 1h-14l3-1Zm-9-1h2l2 1h-5l1-1Zm22 0h3l2 1h-6l1-1Zm-26-1h2v1h-3l1-1Zm37-1c4-2 7-3 9-3l2-1-5 2c-3 2-7 3-9 3l-3 1 6-2Zm-43 0c-2 0-4-1-5-2l-3-1v-1h1l6 2 6 3h-2c-1 0-2-1-3-1Zm55-5s4-3 7-5c6-4 11-10 17-18l2-2-2 3c-2 5-16 18-21 21l-4 2 1-1Zm-73-4c-8-6-15-15-19-23-2-4-4-7-4-8l3 6c7 12 12 18 22 25 3 2 5 3 5 4-1 0-3-2-7-4Zm-46-14c-2-3-6-9-9-12l-6-6 3 2c4 3 12 12 15 18l2 5c-1 0-2-3-5-7Zm147-13 2-5h1v1l-2 4c-1 3-2 5-2 5h-1l2-5Zm-198-6c1 0 3-2 6-3 8-2 18-2 24 1 3 1 5 2 5 2v1l-3-1c-7-4-20-4-29-1l-3 2v-1Zm72-3c-3-12-3-27 1-40l1-5h1l-2 8c-3 10-3 25-1 34 1 3 2 6 2 7h-1l-1-4Zm132-10v-3l1 1v3l-1 2v-3Zm0-17v-3l1 1v3l-1 2v-3Zm-1-7v-1l1 1v2h-1v-2Zm-1-3c0-1-2-5-3-9l-4-8h1c1 0 8 17 7 18h-1v-1Zm-123-17c2-5 17-20 21-22l3-1-3 2c-7 6-15 14-19 19-2 3-3 6-4 6l2-4Zm111-7c-4-5-9-10-17-15l-2-2 3 2c4 1 18 15 20 19l1 2c-1 0-3-3-5-6Zm-87-17c0-1 18-8 23-8h3l-8 2c-4 1-10 3-13 4l-5 3v-1Zm64-1-2-2h1s1 1 3 1l2 2h-1s-2-1-3-1Zm-5-3-8-2-7-2h2c2 0 11 2 14 4l2 1h-2s-1 0-1-1Zm-705-4-2-1 1-1v-1l-1 1c-2 0-31-19-41-28-12-11-21-21-32-36-7-9-10-13-13-22-2-5-4-11-4-11 0-1-1-4-1-6-1-2-2-9-3-16-2-18 1-34 8-46 10-17 26-31 50-42 11-5 27-10 35-12h4l-2 1c-1 0-2 1-3 1-2 0-17 5-22 7-1 0-3 1-4 1 0 0-4 2-9 4-31 15-51 37-55 60-2 11-1 39 2 43l2 6c1 3 2 6 2 7 1 0 1 1 1 2 0 4 8 17 17 28 7 9 9 11 19 21 14 14 20 19 38 30l9 6 1-1-5-7c-3-4-6-9-7-10 0-2-2-5-3-7-12-20-22-38-22-41 0 0-1-2-1-3-3-5-6-15-8-24-4-15-2-31 5-41 6-10 23-17 45-20 5 0 9-1 10-1 0-1 6-1 14-2 23-2 34-6 43-17 5-6 6-10 5-17-5-20-25-30-60-27-6 1-12 1-12 1v-1l4-1h19c16 0 25 1 34 6 5 2 11 9 14 15 5 10 3 20-6 28-10 9-19 12-41 15-30 3-43 5-54 10-8 4-13 8-16 16-3 6-3 7-4 18 0 9 0 13 2 20 5 19 14 41 26 60 2 2 5 8 8 12 2 4 7 11 10 16l7 9h-1s-2-1-3-2Zm673-1c1-1 4-1 8-1 3 0 6 0 7 1l2 1h-18l1-1Zm-421-26c-12-4-16-6-26-16-13-13-26-33-31-49-5-18-7-36-5-47 2-8 6-17 10-21 2-3 10-8 13-10 7-3 16 0 23 7s11 18 15 40c3 17 6 26 10 32 11 17 20 20 38 14 16-5 43-20 58-31 15-12 38-39 42-50l1-4h5v1c0 1 0 2-1 2 0 1-1 5-1 10-2 15-8 31-21 50-21 31-39 48-65 61-25 12-48 16-65 11Zm35-1c24-7 38-15 55-28 10-7 24-22 31-32 19-28 26-42 28-60 1-5 1-10 1-11v-2l-2 5c-6 11-30 40-43 50-14 10-33 20-51 28-14 6-25 7-31 3-13-8-20-21-23-37-6-34-9-42-17-50s-15-10-22-6c-10 5-16 13-20 24-3 9-3 25 0 38 1 5 2 10 3 12 0 1 1 3 2 5 6 19 28 48 42 56 5 2 14 6 19 6 5 1 23 0 28-1ZM375 176h6l3 1h-12l3-1Zm-19-2c-8-3-11-5-18-9-13-9-25-28-28-43v-4c1 1 2 3 2 6 3 15 14 31 28 40 2 2 5 3 6 4 0 0 2 1 5 2 2 1 4 2 5 2l8 2 7 1v1h-4c-2 0-7-1-11-2Zm28 1s3 0 7-1c6-1 6-1 16-6 19-9 34-29 36-51 1-10 0-24-2-29-1-1-2-3-2-4s-4-9-8-15c-4-5-11-12-17-16s-21-10-26-10c-1 0-4 0-6-1h-3v-2h9v2h2c4 0 16 4 22 8 14 9 24 22 30 39 3 9 4 29 0 39-6 20-18 34-36 42-7 3-15 6-19 6h-3v-1Zm-75-65c0-8 2-22 4-24 0-1 1-3 2-5 3-10 16-24 27-31 6-4 18-8 22-8h2v-2h9v2c-3 0-17 2-18 3-21 9-31 18-40 34-4 9-6 16-7 29l-1 10v-8Z"/>
  <path fill="#717171" d="M870 1031h14l8 1h-28l6-1Zm-13-1h2v1h-3l1-1Zm40 0h2v1h-3l1-1Zm-46-1h2v1h-3l1-1Zm-9-2h2v1h-3l1-1Zm71 0h2v1h-3l1-1Zm-555-2h12l7 1h-25l6-1Zm-14-1h2v1h-3l1-1Zm37 0h2l2 1h-5l1-1Zm-43-1h2v1h-3l1-1Zm603-6c1-1 2-1 3-1h1l-2 1c-1 1-2 1-2 1h-1l1-1Zm-629-1-1-1h1s1 0 2 1l2 1h-1c-1 0-2 0-3-1Zm550-4h2l2 1h-5l1-1Zm30 0h2v1h-3l1-1Zm-36-1h2v1h-3l1-1Zm43 0h2v1h-3l1-1Zm-600-2-1-1 2 1c1 1 2 1 2 2 0 0-1-1-3-2Zm129 2c0-1 2-2 5-3l4-2c0 1-8 5-9 5Zm423-1h2v1h-3l1-1Zm53 0h2v1h-3l1-1Zm-57-1h2v1h-3l1-1Zm-46-2-1-1 1 1c1 1 2 1 2 2-1 0-1-1-2-2Zm111 1h2v1h-3l1-1Zm-562-2h4l2 1h-8l2-1Zm24 0h4l2 1h-7l1-1Zm-31-1h2v1h-3l1-1Zm454-1-1-1 1 1c1 1 2 1 2 2-1 0-1-1-2-2Zm-7-5-2-3 3 2c2 2 3 4 3 4s-2-1-4-3Zm-508-1-1-2 2 1c1 1 2 2 2 3-1 0-2-1-3-2Zm166 2c0-1 1-1 2-2l2-1c0 1-1 1-2 2l-2 1Zm371-3-1-1 2 1c1 1 2 1 2 2 0 0-1-1-3-2Zm154 2c0-1 1-1 2-2l2-1-2 1c-1 1-1 2-2 2Zm-657-2-1-1 1 1h2v1h-1s-1 0-1-1Zm97 0c1-1 2-1 3-1h1l-2 1c-1 1-2 1-2 1h-1l1-1Zm564-1c0-1 1-1 2-2l2-1-2 1c-1 1-1 2-2 2Zm-706-8-6-7 7 6c4 4 7 8 7 8s-4-3-8-7Zm351 5-1-1 1 1c1 1 2 1 2 2-1 0-1-1-2-2Zm160-3-3-3 3 3 4 4-4-4Zm-357 2c0-1 1-2 3-2l3-2c0 1-1 2-3 3l-3 1Zm35 0c0-1 1-1 2-2l2-1-2 1c-1 1-1 2-2 2Zm524-2c1-2 3-3 3-3l-2 3c-1 1-3 2-3 2l2-2Zm-176-1-1-1 1 1c1 1 2 1 2 2-1 0-1-1-2-2Zm-184-16v-17l1 8v18l-1 9v-18Zm329 17c0-1 1-2 3-2l2-2v1c-1 0-2 1-3 2l-2 1Zm-489-1c0-1 1-1 2-2l2-1-2 1c-1 1-1 2-2 2Zm154-4c-1 0-1-1-1-2l1 1 1 2v1h-1v-2Zm180-4-5-6 6 5c3 4 6 7 6 7s-3-3-7-6Zm-505 1-1-1 1 1c1 1 2 1 2 2-1 0-1-1-2-2Zm179 0c1-2 3-3 3-3l-2 3c-1 1-3 2-3 2l2-2Zm303 0-1-1 1 1c1 1 2 1 2 2-1 0-1-1-2-2Zm187 2c0-1 1-1 2-2l2-1-2 1c-1 1-1 2-2 2Zm30-1s1-2 3-4l4-2-3 3c-2 2-4 3-4 3Zm-26-2c0-1 1-1 2-2l2-1-2 1c-1 1-1 2-2 2Zm-682-6-4-5 5 4c3 3 5 6 5 6s-3-2-6-5Zm488 3-1-1 1 1c1 1 2 1 2 2-1 0-1-1-2-2Zm-511-2-1-1 1 1c1 1 2 1 2 2-1 0-1-1-2-2Zm188 1c0-1 1-1 2-2l2-1-2 1c-1 1-1 2-2 2Zm522 0s1-2 3-4l4-2-3 3c-2 2-4 3-4 3Zm-713-5-1-1 1 1c1 1 2 1 2 2-1 0-1-1-2-2Zm197 0c0-1 2-2 2-2l-1 2c-1 1-3 2-3 2l2-2Zm335-1-1-1 1 1c1 1 2 1 2 2-1 0-1-1-2-2Zm215-2c0-1 2-2 2-2l-1 2c-1 1-3 2-3 2l2-2Zm-240-1-1-2c1 0 1 1 2 2l1 2c-1 0-1-1-2-2Zm-297-8c5-6 10-10 10-10l-9 10c-5 5-10 9-10 9l9-9Zm-191 6-1-1 1 1c1 1 2 1 2 2-1 0-1-1-2-2Zm210 1s1-2 3-4l4-2-3 3c-2 2-4 3-4 3Zm-236-5-1-2c1 0 1 1 2 2l1 2c-1 0-1-1-2-2Zm760 0c0-1 2-2 2-2l-1 2c-1 1-3 2-3 2l2-2Zm-738-1-1-1 1 1c1 1 2 1 2 2-1 0-1-1-2-2Zm221-2c0-1 1-1 2-2l2-1-2 1c-1 1-1 2-2 2Zm497-2c0-1 2-2 2-2l-1 2c-1 1-3 2-3 2l2-2Zm-383-1v-1l1 1v2h-1v-2Zm408-1c0-1 1-1 2-2l2-1-2 1c-1 1-1 2-2 2Zm-518-1c0-1 1-1 2-2l2-1-2 1c-1 1-1 2-2 2Zm496-1c0-1 1-1 2-2l2-1-2 1c-1 1-1 2-2 2Zm-515-5c0-1 1-1 2-2l2-1-2 1c-1 1-1 2-2 2Zm144-7v-4l1 2v4l-1 3v-5Zm378 3c0-1 1-1 2-2l2-1-2 1c-1 1-1 2-2 2Zm-518-1c0-1 1-1 2-2l2-1-2 1c-1 1-1 2-2 2Zm-223-5c-1 0-1-1-1-2l1 1 1 2v1h-1v-2Zm226 1c0-1 1-1 2-2l2-1-2 1c-1 1-1 2-2 2Zm30-12c1-1 1-2 2-2l-1 2c-1 1-1 2-2 2l1-2Zm83-1v-1l1 1v2h-1v-2Zm23-4v-4l1 2v4l-1 3v-5Zm392 2c1-1 1-2 2-2l-1 2c-1 1-1 2-2 2l1-2Zm-267-1v-1l1 1v2h-1v-2Zm-249-2c1-1 1-2 2-2l-1 2c-1 1-1 2-2 2l1-2Zm248-2v-1l1 1v2h-1v-2Zm19-1v-1l1 1v2h-1v-2Zm-20-3v-2l1 1v2l-1 2v-3Zm294 2c0-1 0-2 1-3l1-1v1s0 1-1 2l-1 2v-1Zm-275-3v-1l1 1v2h-1v-2Zm-532-1v-1l1 1v2h-1v-2Zm19 0v-1l1 1v2h-1v-2Zm-20-4v-2l1 1v2l-1 2v-3Zm19 0v-2l1 1v2l-1 2v-3Zm494 0v-2l1 1v2l-1 2v-3Zm19 0v-1l1 1v2h-1v-2Zm-256-3v-2h1v1l-1 1-1 2 1-2Zm114-3v-5l1 2v5l-1 3v-5Zm-372 1v-2l1 1v2l-1 2v-3Zm-19-1v-2l1 1v2l-1 2v-3Zm532 0v-1l1 1v2h-1v-2Zm-19-1v-2l1 1v2l-1 2v-3Zm-495-5v-1l1 1v2h-1v-2Zm-19-1v-2l1 1v2l-1 2v-3Zm361 0v-1l1 1v2h-1v-2Zm171 0v-2l1 1v2l-1 2v-3Zm-19-4v-2l1 1v2l-1 2v-3Zm-495-2v-2l1 1v2l-1 2v-3Zm783-2v-1l1 1v2h-1v-2Zm-802-1v-3l1 1v3l-1 2v-3Zm392-4v-5l1 2v5l-1 3v-5Zm-85 0v-1l1 1v2h-1v-2Zm225-5v-7l1 3v8l-1 4v-8Zm-514-6v-8l1 4v8l-1 4v-8Zm336-3v-1l1 1v2h-1v-2Zm37-6v-6l1 3v6l-1 4v-7Zm-38 2v-1l1 1v2h-1v-2Zm161 0v-3l1 1v3l-1 2v-3Zm314-4v-1l1 1v2h-1v-2Zm-476-1v-1l1 1v2h-1v-2Zm181 0v-2l1 1v2l-1 2v-3Zm-533-2v-3l1 1v3l-1 2v-3Zm810-2v-1l1 1v2h-1v-2Zm19-1v-2l1 1v2l-1 2v-3Zm-515-1v-1l1 1v2h-1v-2Zm201 0v-2l1 1v2l-1 2v-3Zm-496-1v-2l1 1v2l-1 2v-3Zm515-1v-1l1 1v2h-1v-2Zm277-3v-3l1 1v4l-1 2v-4Zm-515 0v-2l1 1v2l-1 2v-3Zm94-4v-7l1 3v7l-1 4v-7Zm-75 3v-3l1 1v3l-1 2v-3Zm-314-1v-2l1 1v2l-1 2v-3Zm515 0v-1l1 1v2h-1v-2Zm314 0c0-2 1-6 1-8l1-4v3c0 1-1 5-1 7l-1 5v-3Zm-295-1v-2l1 1v2l-1 2v-3Zm-515-1v-2l1 1v2l-1 2v-3Zm277-3v-3l1 1v4l-1 2v-4Zm220-1v-2l1 1v2l-1 2v-3Zm19 0v-2l1 1v2l-1 2v-3Zm-534-1v-2l1 1v2l-1 2v-3Zm314-2v-4l1 2v4l-1 3v-5Zm496-11v-15l1 7v16l-1 8v-16Zm-791 12v-2l1 1v2l-1 2v-3Zm497-3v-2l1 1v2l-1 2v-3Zm19 0v-1l1 1v2h-1v-2Zm-534-2v-2l1 1v2l-1 2v-3Zm295-5v-7l1 3v8l-1 4v-8Zm-276 4v-1l1 1v2h-1v-2Zm516-1v-1l1 1v2h-1v-2Zm-193-1v-1l1 1v2h-1v-2Zm44-4v-7l1 3v7l-1 4v-7Zm130 4v-1l1 1v2h-1v-2Zm-496-2v-2l1 1v2l-1 2v-3Zm-19-1v-1l1 1v2h-1v-2Zm313-7v-9l1 4v9l-1 5v-9Zm27 6v-1l1 1v2h-1v-2Zm-339-3v-1l1 1v2h-1v-2Zm338-1v-1l1 1v2h-1v-2Zm-45-10v-8l1 4v8l-1 4v-8Zm532 1v-8h1v7c1 3 1 6 1 7h-1l-1-6Zm-422 0v-2l1 1v2l-1 2v-3Zm-20-5v-5l1 2v6l-1 3v-6Zm31 1c0-1 2-2 2-2l-1 2c-1 1-3 2-3 2l2-2Zm-10-2v-1l1 1v2h-1v-2Zm136 2c0-1 0-2 1-3l1-1v1s0 1-1 2l-1 2v-1Zm266-3v-3l1 1v4l-1 2v-4Zm-386-2c1-2 3-3 3-3l-2 3c-1 1-3 2-3 2l2-2Zm-109-2v-4l1 2v4l-1 2v-4Zm-285 1c0-1 0-2 1-3l1-1v1s0 1-1 2l-1 2v-1Zm798-3v-2l1 1v2l-1 2v-3Zm-532-1v-3l1 1v3l-1 2v-3Zm513-1v-2l1 1v2l-1 2v-3Zm-797 0c0-1 0-2 1-3l1-1v1s0 1-1 2l-1 2v-1Zm374-5v-4l1 2v4l-1 2v-4Zm-72 0v-2l1 1v2l-1 2v-3Zm513 0v-1l1 1v2h-1v-2Zm-532-1v-2l1 1v2l-1 2v-3Zm513 0v-1l1 1v2h-1v-2Zm-474-1v-1l1 1v2h-1v-2Zm106-4c3-4 6-6 6-6l-5 6c-3 3-6 5-6 5l5-5Zm-107 0v-1l1 1v2h-1v-2Zm222-1c0-2 1-3 2-3l-1 3c-1 2-2 3-3 3l2-3Zm-261 0v-1l1 1v2h-1v-2Zm240 0c0-1 3-7 4-7l-2 3c-1 2-1 4-2 4Zm-202-3v-1l1 1v2h-1v-2Zm-291-4c1-1 1-2 2-2l-1 2c-1 1-1 2-2 2l1-2Zm344-1v-4l1 2v4l-1 2v-4Zm-365 2c0-1 3-7 4-7l-2 3c-1 2-1 4-2 4Zm404-8c1-1 1-3 2-3v1s-1 1-2 3l-1 2 1-3Zm139 0c1-1 1-2 2-2l-1 2c-1 1-1 2-2 2l1-2Zm-473-6c0-4 1-8 1-9l1-2-1 7c0 5 0 9-1 9l-1 2 1-7Zm375-5 11-11-10 11c-7 6-12 11-12 11l11-11Zm-418 8c1-1 1-2 2-2l-1 2c-1 1-1 2-2 2l1-2Zm46-3c1-1 1-2 2-2l-1 2c-1 1-1 2-2 2l1-2Zm-310 0c0-1 10-17 11-17l-1 1c0 1-2 4-4 7s-3 5-3 5v1l2-1h2l-3 2c-2 1-3 2-3 2h-1Zm601-2v-3l1 1v3l-1 2v-3Zm162 0c1-1 1-2 2-2l-1 2c-1 1-1 2-2 2l1-2Zm-449-3c0-2 1-3 2-3l-1 2c-1 1-2 2-2 3h-1l2-2Zm229 0v-1l1 1v2h-1v-2Zm-536 0c0-1 5-5 25-22l3-3s-5 5-12 11c-6 6-13 11-14 12l-2 2Zm535-4v-1l1 1v2h-1v-2Zm-224-3c6-9 8-13 9-13l-2 3c-6 9-8 13-9 13l2-3Zm331 3c0-1 1-3 2-5l2-3v1l-2 4-2 4v-1Zm-108-4v-1l1 1v2h-1v-2Zm251 2c0-1 1-1 2-2l2-1-2 1c-1 1-1 2-2 2Zm-518-1c0-1 1-1 2-2l2-1-2 1c-1 1-1 2-2 2Zm326-3v-3l1 1v3l-1 2v-3Zm-291-2v-2l1 1v2l-1 2v-3Zm700 0-1-2c1 0 1 1 2 2l1 2c-1 0-1-1-2-2Zm-753-2c1-2 2-3 3-3l-2 3c-1 2-2 3-3 3l2-3Zm542 1c1-2 3-3 3-3l-2 3c-1 1-3 2-3 2l2-2Zm230-3-2-4c1 0 2 2 3 4l2 4v1h-1l-2-5ZM25 746c0-1 2-4 3-5l2-2-2 3c0 1-2 4-3 5l-2 3 2-4Zm270-2c1-2 3-3 3-3l-2 3c-1 1-3 2-3 2l2-2Zm27 0c0-2 0-5 1-7l1-4v3c0 1 0 4-1 7l-1 4v-3Zm469-1c0-1 2-2 2-2l-1 2c-1 1-3 2-3 2l2-2Zm-520 1c0-1 1-1 2-2l2-1-2 1c-1 1-1 2-2 2Zm440 0c0-1 1-1 2-2l2-1-2 1c-1 1-1 2-2 2Zm-186-6-2-4c1 0 2 2 3 4l2 4c-1 0-2-2-3-4Zm-185 1c1-1 2-2 2-3h1l-1 2c-1 1-2 2-2 3h-1l1-2Zm271-1v-3l1 1v4l-1 2v-4Zm184 0c0-1 2-2 2-2l-1 2c-1 1-3 2-3 2l2-2Zm-79 1s3-4 8-8l8-7-8 7c-4 5-8 8-8 8Zm-685-3c1-1 2-2 2-3h1l-2 2c0 2-1 3-2 3l1-2Zm18 0s1-2 3-4l4-2-3 3c-2 2-4 3-4 3Zm230-2c1-2 3-3 3-3l-2 3c-1 1-3 2-3 2l2-2Zm25 0c1-2 3-3 3-3l-2 3c-1 1-3 2-3 2l2-2Zm197 0-1-1 1 1c1 1 2 1 2 2-1 0-1-1-2-2Zm-157-1c1-1 2-2 2-3h1l-2 2c0 2-1 3-2 3l1-2Zm665 0-1-2 2 1c1 1 2 2 2 3-1 0-2-1-3-2Zm-182-1c1-2 3-3 3-3l-2 3c-1 1-3 2-3 2l2-2Zm-792-2c1-1 1-2 2-2l-1 2c-1 1-1 2-2 2l1-2Zm289 0v-2l1 1v2l-1 2v-3Zm482-4 6-6-5 6c-4 3-7 6-7 6l6-6Zm-750 4c0-1 5-6 12-11l12-11c0 1-2 3-16 15l-8 7Zm293-4c0-2 1-3 2-3l-1 3c-1 2-2 3-3 3l2-3Zm146 0-1-1 1 1c1 1 2 1 2 2-1 0-1-1-2-2Zm115-1v-4l1 2v4l-1 2v-4Zm222 3c0-1 1-1 2-2l2-1-2 1c-1 1-1 2-2 2Zm169-4-4-5s3 2 5 5l4 4s-3-2-5-4Zm-963 1c1-1 2-2 2-3h1l-1 2c-1 1-2 2-2 3h-1l1-2Zm254-5c3-4 7-7 7-7l-6 7c-4 4-8 7-8 7l7-7Zm22 5c1-2 3-3 3-3l-2 3c-1 1-3 2-3 2l2-2Zm12-4v-5l-2 1-1 1 1-1 2-2h1c0 1 0 3-1 6l-1 5 1-5Zm190 2-1-1 1 1c1 1 2 1 2 2-1 0-1-1-2-2Zm29 0v-1l1 1v2h-1v-2Zm291 2c0-1 1-1 2-2l2-1-2 1c-1 1-1 2-2 2Zm187-4-1-2 2 1c1 1 2 2 2 3-1 0-2-1-3-2Zm-705 1c0-1 1-1 2-2l2-1-2 1c-1 1-1 2-2 2Zm34-2c1-1 1-2 2-2l-1 2c-1 1-1 2-2 2l1-2Zm134-4-5-5 5 5 6 6-6-6Zm-444 3c1-1 1-2 2-2l-1 2c-1 1-1 2-2 2l1-2Zm502 0v-1l1 1v2h-1v-2Zm194-3 4-4-3 4c-2 1-4 3-4 3l3-3Zm276-5-6-7 7 6c4 4 7 8 7 8s-4-3-8-7Zm-657 0c2-3 3-6 4-6l-3 6c-2 3-3 6-4 6l3-6Zm152 4-1-2 2 1c1 1 2 2 2 3-1 0-2-1-3-2Zm34 0v-1l1 1v2h-1v-2Zm66-2v-5l1 2v5l-1 3v-5Zm209 2c0-1 2-2 2-2l-1 2c-1 1-3 2-3 2l2-2Zm29 2c0-1 1-1 2-2l2-1c0 1-1 1-2 2l-2 1Zm145-2-1-1 1 1c1 1 2 1 2 2-1 0-1-1-2-2Zm-947-1c1-1 2-2 2-3h1l-1 2c-1 1-2 2-2 3h-1l1-2Zm776-1c0-1 1-1 2-2l2-1-2 1c-1 1-1 2-2 2Zm-518-3c1-2 3-3 3-3l-2 3c-1 1-3 2-3 2l2-2Zm196-6-7-8 8 7c4 5 8 9 8 9s-4-4-9-8Zm-450 4c1-1 1-2 2-2l-1 2c-1 1-1 2-2 2l1-2Zm697-1c0-1 2-2 2-2l-1 2c-1 1-3 2-3 2l2-2Zm-662-2 3-4 1 1s-2 2-4 3l-3 3 3-3Zm223 2c0-1 1-1 2-2l2-1-2 1c-1 1-1 2-2 2Zm165-2-2-2 2 1c1 1 2 1 3 2v1s-2-1-3-2Zm357 2c0-1 1-1 2-2l2-1-2 1c-1 1-1 2-2 2Zm-776-5c0-1 2-4 3-5l2-2-2 3c0 1-2 4-3 5l-2 3 2-4Zm555-1v-5l1 2v5l-1 3v-5Zm-247 3c0-1 1-2 2-4l1-4h1l-2 4c0 2-1 4-2 4Zm387 0c0-1 1-1 2-2l2-1-2 1c-1 1-1 2-2 2Zm255-4-1-1 1 1c1 1 2 1 2 2-1 0-1-1-2-2Zm-906-6 8-8v1s-4 4-8 7l-8 7 8-7Zm592 7c0-1 1-3 2-4l1-2v1s-1 2-1 3l-2 3v-1Zm-230-3-2-2h1s2 1 3 2l3 1h-1c-1 0-3-1-4-1Zm387-2c0-1 1-1 2-2l2-1c0 1-1 1-2 2l-2 1Zm48-1h2v1h-3l1-1Zm58 0h2v1h-3l1-1Zm-893-2c0-2 2-3 2-4l2-2-1 2c0 1-2 2-2 4l-2 2 1-2Zm844 0h2v1h-3l1-1Zm7-1h2v1h-3l1-1Zm25 0h2l2 1h-5l1-1Zm-328-3v-4l1 2v4l-1 2v-4Zm-70 0v-1l1 1v2h-1v-2Zm-154-1h2v1h-3l1-1Zm96-1-1-1 2 1c1 1 2 1 2 2 0 0-1-1-3-2Zm-92 0h3l2 1h-6l1-1Zm42 0h2l2 1h-5l1-1Zm433 0c1-1 2-1 3-1h1l-2 1c-1 1-2 1-2 1h-1l1-1Zm-469-1h4l2 1h-7l1-1Zm28 0h4l2 1h-7l1-1Zm-357-2c1-1 2-2 2-3h1l-1 2c-1 1-2 2-2 3h-1l1-2Zm45-1 3-4 1 1s-2 2-4 3l-3 3 3-3Zm298 2h6l3 1h-12l3-1Zm129-1v-1l1 1v2h-1v-2Zm-204-2v-2l1 1v2l-1 2v-3Zm203-3v-1l1 1v2h-1v-2Zm-467 0c3-6 9-15 10-15l-2 3c-5 9-8 13-9 13l1-1Zm538-1v-3l1 1v3l-1 2v-3Zm-492 1c0-1 4-4 8-8l9-7-3 2c-1 2-5 5-8 8l-6 5Zm219-1c0-2 0-4 1-6l1-4v3c0 1-1 4-1 6l-1 3v-2Zm553 0h2v1h-3l1-1Zm70-1h2v1h-3l1-1Zm-4-1h2v1h-3l1-1Zm-418-2v-1l1 1v2h-1v-2Zm364 1h2v1h-3l1-1Zm49 0h2v1h-3l1-1Zm-43-1h2l2 1h-5l1-1Zm37 0h2v1h-3l1-1Zm-28-1h3l2 1h-6l1-1Zm17 0h3l2 1h-6l1-1Zm-397-4v-1l1 1v2h-1v-2Zm-155-3c0-2 1-4 2-4 0 1-1 2-2 4l-1 4h-1l2-4Zm5 3h2v1h-3l1-1Zm51 0h2l2 1h-5l1-1Zm171-1v-3l1 1v3l-1 2v-3Zm-217 0h3l2 1h-6l1-1Zm39 0h3l2 1h-6l1-1Zm-30-1h5l3 1h-10l2-1Zm20 0h5l3 1h-10l2-1Zm-82-2v-1l1 1v2h-1v-2Zm197-1v-1l1 1v2h-1v-2Zm-398-3 4-4-3 4c-2 1-4 3-4 3l3-3Zm573 3c0-1 1-3 2-4l1-2v1s-1 2-1 3l-2 3v-1Zm-370-5c0-3 1-6 1-7l1-2-1 4c0 2-1 5-1 7l-1 2 1-4Zm44 0c0-1 1-2 1-3h1l-1 2c0 1-1 2-1 3h-1l1-2Zm-300 0c2-4 7-12 8-12l-4 6c-2 3-4 6-4 7l-1 1 1-2Zm523-2v-2l1 1v2l-1 2v-3Zm381-1h15l8 1h-30l7-1Zm-846 0c0-1 7-6 15-13l14-12-2 1c-2 3-26 24-27 24Zm823-1h4l2 1h-7l1-1Zm-579 0c0-1 1-3 2-4l1-2v1s-1 2-1 3l-2 3v-1Zm569-1h2l2 1h-5l1-1Zm-8-1h2v1h-3l1-1Zm-172-2v-3l1 1v3l-1 2v-3Zm165 1h2v1h-3l1-1Zm-7-1h2l2 1h-5l1-1Zm73 0h2v1h-3l1-1Zm-79-1h2l2 1h-5l1-1Zm74 0h2l2 1h-5l1-1Zm-78-1h2v1h-3l1-1Zm73 0h2l2 1h-5l1-1Zm-654-2v-1l1 1v2h-1v-2Zm264 0v-3l1 1v3l-1 2v-3Zm312 1h2v1h-3l1-1Zm71 0h2l2 1h-5l1-1Zm-6-1h2v1h-3l1-1Zm-890-2c2-4 8-13 9-13l-5 7c-2 4-4 7-5 7l1-1Zm297 1c0-1 1-3 2-4l1-2v1s-1 2-1 3l-2 3v-1Zm140-3v-1l1 1v2h-1v-2Zm-186-2c0-3 1-5 1-6l1-2-1 4c0 2-1 4-1 6l-1 2 1-4Zm551 1h2v1h-3l1-1Zm-4-1h2v1h-3l1-1Zm-362-2v-1l1 1v2h-1v-2Zm428 1-1-1h1s1 0 2 1l2 1h-1c-1 0-2 0-3-1Zm-182-2v-1l1 1v2h-1v-2Zm-170-3v-3l1 1v4l-1 2v-4Zm-211 2c0-1 1-3 2-4l1-2v1s-1 2-1 3l-2 3v-1Zm134-3v-1l1 1v2h-1v-2Zm135-1-1-1h1s1 0 2 1l2 1h-1c-1 0-2 0-3-1Zm276-1-2-2h1s2 1 3 2l3 1h-1c-1 0-3-1-4-1Zm-835-4c0-1 2-4 3-5l2-2-2 3c0 1-2 4-3 5l-2 3 2-4Zm70 0 4-4-3 4c-2 1-4 3-4 3l3-3Zm353 1v-1l1 1v2h-1v-2Zm-180-3c0-1 1-4 1-5l1-2v2c0 1-1 4-1 5l-1 3v-3Zm51 2c0-1 1-3 2-4l1-2v1s-1 2-1 3l-2 3v-1Zm206-3v-3l1 1v3l-1 2v-3Zm38-2c-2-1-4-2-4-3l4 2c2 1 4 2 4 3l-4-2Zm127-1-1-2 1 1c1 2 2 3 2 3v1h-1l-1-3Zm154 1-1-1 1 1h2v1h-1s-1 0-1-1Zm-739-4 4-5h1v1l-4 4c-2 2-5 4-5 4h-1l5-4Zm217 2c0-1 1-3 2-4l1-2v1s-1 2-1 3l-2 3v-1Zm-285-11c4-6 7-11 8-11l-1 1c-3 5-13 20-14 20l7-10Zm409 8v-1l1 1v2h-1v-2Zm78-1v-3l1 1v3l-1 2v-3Zm-254-1v-1l1 1v2h-1v-2Zm416-1-1-1 1 1c1 1 2 1 2 2-1 0-1-1-2-2Zm63 0-1-1 2 1c1 1 2 1 2 2 0 0-1-1-3-2Zm77-2-1-1 2 1c1 1 2 1 2 2 0 0-1-1-3-2Zm-714-1c1 0 5-5 10-9l9-8v1c-1 0-5 5-10 9l-9 9v-2Zm160-3c0-3 1-6 1-8l1-3-1 5c0 3-1 6-1 8l-1 3 1-5Zm54 2s1-2 2-3l1-2-1 2c0 1-1 3-1 3l-1 1v-1Zm119-1v-2l1 1v2l-1 2v-3Zm78 0v-2l1 1v2l-1 2v-3Zm158 0-1-2 2 1c1 1 2 2 2 3-1 0-2-1-3-2Zm-142-5-5-5 5 5 6 6-6-6Zm-17-1v-2l1 1v2l-1 2v-3Zm211 0-1-1 1 1c1 1 2 1 2 2-1 0-1-1-2-2Zm-403-1c0-1 2-5 3-8l3-6v1c0 1-5 13-6 15l-1 1 1-3Zm480 0-2-2 2 2c2 0 3 1 3 2-1 0-2-1-3-2Zm-139-3-2-3 3 2c2 2 3 4 3 4s-2-1-4-3Zm58 1-1-1 1 1c1 1 2 1 2 2-1 0-1-1-2-2Zm-681-7c2-3 3-5 4-5l-1 2c0 1-2 3-4 5l-2 3 3-5Zm668-5-8-8 8 8 9 9-9-9Zm-185 7v-2h1v1l1 2c-1 0-1 0-2-1Zm-257-3v-2l1 1v2l-1 2v-3Zm-141 0s2-2 5-4l4-4 1 1-5 4-5 4v-1Zm656-5-1-2 2 1c1 1 2 2 2 3-1 0-2-1-3-2Zm-344-1v-1l1 1v2h-1v-2Zm84-2v-5l1 2v5l-1 3v-5Zm-474-1c2-3 3-5 4-5l-1 2c0 1-2 3-4 5l-2 3 3-5Zm281 3c1-1 1-4 2-6l1-4h1l-2 6-1 5h-1v-1Zm316-1c-2-1-3-2-3-3l2 1c1 0 2 2 4 2l2 2h-1l-4-2Zm-377-9v-11l1 4v11l-1 7v-11Zm506 4-4-5s3 2 5 5l4 4s-3-2-5-4Zm-628-6 17-17 9-9-11 11c-6 7-14 15-17 18l-7 6 9-9Zm550 1-2-3 3 2c2 2 3 4 3 4s-2-1-4-3Zm-639-5c2-3 5-7 6-8l1-1-5 7c-3 5-6 8-6 9h-1l5-7Zm450 5c-1 0-1-1-1-2l1 1 1 2v1h-1v-2Zm-173-4c0-2 1-5 1-6l1-2-1 4c0 2-1 5-1 6l-1 2 1-4Zm190 1c0-1 0-2 1-3l1-1v1s0 1-1 2l-1 2v-1Zm238-4-2-3 3 2c2 2 3 4 3 4s-2-1-4-3Zm-72-1-1-1 1 1c1 1 2 1 2 2-1 0-1-1-2-2Zm-190-4-1-1 1 1c1 1 2 1 2 2-1 0-1-1-2-2Zm185-2-1-1 1 1c1 1 2 1 2 2-1 0-1-1-2-2Zm71-1-1-1 1 1c1 1 2 1 2 2-1 0-1-1-2-2Zm-490-1-1-1 1 1 1 1v1h-1v-2Zm70 0v-1l1 1v2h-1v-2Zm159-2-3-3 3 3 4 4-4-4Zm-428-1c2-3 3-5 4-5l-3 5c-2 2-3 4-4 4l3-4Zm384 1 4-4-3 4c-2 1-4 3-4 3l3-3Zm231 0-1-1 1 1c1 1 2 1 2 2-1 0-1-1-2-2Zm-147-2 4-4-3 4c-2 1-4 3-4 3l3-3Zm-273 0-1-2 2 1c1 1 2 2 2 3-1 0-2-1-3-2Zm75-11v-11l1 5v11l-1 6v-11Zm-80 7-1-1 2 1c1 1 2 1 2 2 0 0-1-1-3-2Zm315 0h2v1h-3l1-1Zm-29-1h4l2 1h-7l1-1Zm19 0h4l2 1h-7l1-1Zm-491 0c0-1 1-1 2-2l2-1-2 1c-1 1-1 2-2 2Zm181-2-1-1 2 1c1 1 2 1 2 2 0 0-1-1-3-2Zm-177-4c1-1 2-2 2-3h1l-1 2c-1 1-2 2-2 3h-1l1-2Zm102-3 5-5h1l-4 5-5 5h-1l4-5Zm68 3c-2 0-3-1-3-2l3 2c2 0 3 1 3 2 0 0-2-1-3-2Zm-250-3c-1 0-1-3-1-5v-5h2c2 0 3 1 4 1 1 2 1 7 0 9-2 1-4 1-5 0Zm244 0-1-1h1s1 0 2 1v1h-1s-1 0-1-1Zm-158-5c2-3 3-5 4-5l-1 2c0 1-2 3-4 5l-2 3 3-5Zm148 0c-3-2-6-3-6-4l6 3c3 2 6 3 6 4 0 0-3-1-6-3Zm-38-9 7-9 5 3c2 1 5 3 6 3l1 1-6-3-5-3-8 8-8 9 8-9Zm28 4-2-2h1s1 1 3 1l2 2h-1s-2-1-3-1Zm444-2-1-3v-1h1l1 4 2 3c-1 0-2-1-3-3Zm-327 0v-1l1 1v2h-1v-2Zm-248-3c2-3 4-5 4-5l-1 2c0 1-2 3-4 5l-2 3 3-5Zm125 1c-2 0-3-1-3-2l3 2c2 0 3 1 3 2 0 0-2-1-3-2Zm523 0c-1 0-1-1-1-2l1 1 1 2v1h-1v-2Zm-401-1s0-2-1-4l-1-3 1 1s1 2 2 3v3h-1Zm-241-9c1-2 2-3 3-3l-2 3c-1 2-2 3-3 3l2-3Zm237-3-2-3c1 0 2 1 3 3l1 3c-1 0-2-1-2-3Zm469 1h7l4 1h-14l3-1Zm-9-1h2v1h-3l1-1Zm24 0h2v1h-3l1-1Zm-718-1c0-1 1-1 2-2l2-1-2 1c-1 1-1 2-2 2Zm631-4c-1 0-1-1-1-2l1 1 1 2v1h-1v-2Zm-404-5-16-16c-6-5-11-10-11-10l5 4c7 6 25 23 26 26l1 2s-3-3-5-6Zm450 5-1-1 1 1h2v1h-1s-1 0-1-1Zm-673-2c1-1 2-2 2-3h1l-2 2c0 2-1 3-2 3l1-2Zm552-4v-1l1 1v2h-1v-2Zm189 1c0-1 1-1 2-2l2-1-2 1c-1 1-1 2-2 2Zm-738-1c0-1 1-1 2-2l2-1-2 1c-1 1-1 2-2 2Zm651-8-5-5 5 5 6 6-6-6Zm96 1c2-3 5-5 5-5l-4 5c-3 3-6 5-6 5l5-5Zm-199-2v-7l1 3v7l-1 4v-7Zm-544 3c1-1 2-2 2-3h1l-2 2c0 2-1 3-2 3l1-2Zm6-8c2-3 3-5 4-5l-1 2c0 1-2 3-4 5l-2 3 3-5Zm742 1c0-1 1-1 2-2l2-1-2 1c-1 1-1 2-2 2Zm-203-5c0-1 0-2 1-3l1-1v1s-1 1-1 3l-1 2v-2Zm61-2-1-1 1 1c1 1 2 1 2 2-1 0-1-1-2-2Zm31 0-1-2c1 0 1 1 2 2l1 2c-1 0-1-1-2-2Zm-624-4c2-3 4-5 4-5l-1 2c0 1-2 3-4 5l-2 3 3-5Zm587-3-3-3 3 3 4 4-4-4Zm-418-3c-4-3-7-5-7-6l-1-1 6 4c3 3 7 6 7 7l1 1s-3-2-6-5Zm-170-4c-2-3-5-6-6-8l-3-4v-1h1l1 3c1 1 4 5 7 8l5 6s-2-2-5-4Zm556-3h2v1h-3l1-1Zm15 0h2v1h-3l1-1Zm-415-4c-3-2-6-5-7-6l-1-1 6 5c3 2 6 5 7 5v1s-3-2-5-4Zm407 3h4l2 1h-8l2-1Zm54-2v-1l1 1v2h-1v-2Zm-1-4v-3l1 1v3l-1 2v-3Zm134-2v-1l1 1v2h-1v-2Zm-761-4-1-2v-1h1l1 2 1 3c-1 0-1-1-2-2Zm152-3-5-5 5 5c3 2 6 4 6 5 0 0-3-2-6-5Zm474-2v-5l1 2v5l-1 3v-5Zm-630-6c-1-2-1-4-1-5v-1l2 4c0 3 1 6 1 6h-1l-1-4Zm147 0c-2-2-2-4-2-9v-7l1 7c0 6 1 9 2 10l2 2c-1 0-2-1-3-3Zm484-4v-3l1 1v3l-1 2v-3Zm134 0v-1l1 1v2h-1v-2Zm-133-6v-1l1 1v2h-1v-2Zm-634-3v-4l1 2v4l-1 2v-4Zm763-7c-1 0-1-1-1-2l1 1 1 2v1h-1v-2Zm-762-1c0-1 0-3 1-5l1-4h1s-1 3-1 6l-2 5v-2Zm141-4-3-4h1s2 2 5 6l1 2v1l-4-5Zm501-6c1-1 2-2 2-3h1l-2 2c0 2-1 3-2 3l1-2Zm-509-2c-3-2-5-3-5-4l3 2c2 1 4 2 5 3l1 2s-2-1-4-3Zm-130 1s1-1 2-3l1-1-1 2c-1 1-1 3-2 3v-1Zm751-2-1-1 1 1c1 1 2 1 2 2-1 0-1-1-2-2Zm-109-1c0-1 1-1 2-2l2-1-2 1c-1 1-1 2-2 2Zm101-7-5-6 6 5c3 4 6 7 6 7s-3-3-7-6Zm-738 2 4-4 1-1-3 4-4 4 2-3Zm116 1-3-1h1c1 0 2 1 4 1l2 2h-1s-2-1-3-2Zm-36-1-2-1 2 1c2 1 6 1 14 0l7-1-4 1c-8 2-14 2-17 0Zm29-1h2l2 1h-5l1-1Zm-37-2-1-1h1s1 0 2 1l2 1h-1c-1 0-2 0-3-1Zm-66-3c1 0 2-1 3-2l2-1c0 1-1 2-3 2l-2 2v-1Zm58-1-3-1 2 1c1 0 3 1 4 1l2 1h-1c-1 0-3-1-4-2Zm665-3-2-2 2 1c1 1 2 1 3 2v1s-2-1-3-2Zm-716 0 1-1h1v1h-2l-1 1 1-1Zm41 0-2-1h1c1 0 2 0 3 1l2 1h-1c-1 0-2-1-3-1Zm-33-3c1-1 3-2 5-2h2l-2 1c-2 0-4 1-5 1l-3 1 3-1Zm20-1-5-1 4 1c2 0 5 1 6 1l2 1h-1c-1 0-4-1-6-2Zm-12-2h4l2 1h-7l1-1Zm-18-5-2-1 1-1v-1l-4-5c-2-3-5-7-6-9l-2-4c1 0 2 1 2 3 1 2 5 7 8 11l7 9h-1s-2-1-3-2Zm662 1h2v1h-3l1-1Zm4-1h2l2 1h-5l1-1Zm27 0h2v1h-3l1-1Zm-20-1c1-1 4-1 8-1 3 0 6 0 7 1l1 1h-17l1-1Zm-679-3-1-1 2 1c1 1 2 1 2 2 0 0-1-1-3-2Zm-8-5c-3-1-5-3-5-3v-1l5 3c3 2 5 4 6 4v1l-6-4Zm-9-6-1-1 2 1c1 1 2 1 2 2 0 0-1-1-3-2Zm-5-4-3-2 3 2c2 1 3 2 3 3 0 0-2-1-3-3Zm-15-11c-10-9-16-16-24-25l-4-5 6 6c7 8 20 21 28 28l6 5h-1s-5-4-11-9Zm26 2c-2-3-4-7-5-8l-1-2h1c0 1 3 4 5 8l4 7v1h-1l-3-6Zm273 2h-2 30-2c-1 1-7 1-13 1s-12 0-13-1Zm30-2h2v1h-3l1-1Zm-41-1-2-1v-1l3 1 3 1v1h-1s-2-1-3-1Zm46 0c1 0 3-1 5-1l3-1-2 1c-1 0-3 1-4 1l-3 1 1-1Zm-53-4-2-2 2 1c1 0 2 1 3 2l2 1h-2s-2-1-3-2Zm65 0c1 0 3-1 4-1l3-1-2 1c-1 0-3 1-4 1l-2 1 1-1Zm-70-3-1-1 1-1 1 1 1 2s-1 0-2-1Zm78 0s2-1 3-2l3-1v1c-1 0-2 1-4 2l-3 1 1-1Zm-85-7c-3-2-6-6-7-7l-2-3s4 3 7 8l7 7s-3-2-5-5Zm-251 1-2-3c1 0 2 1 3 3l1 3c-1 0-2-1-2-3Zm343 3c0-1 2-1 3-2l3-1-2 1c-2 1-3 2-3 2h-1Zm6-3c0-1 4-3 8-6l8-5c0 1-11 8-14 10l-2 1Zm-353-7-2-3c1 0 2 1 3 3l1 3c-1 0-2-1-2-3Zm-4-7-1-2 1 1c1 2 2 3 2 3v1h-1l-1-3Zm245-3c-2-3-4-7-5-8l-1-2 1 1c1 1 3 5 6 8l4 6c-1 0-3-2-5-5Zm130 5c0-1 1-1 2-2l2-1-2 1c-1 1-1 2-2 2Zm14-13 11-11-5 6-11 11-5 4 10-10Zm-429 4-1-1 1 1c1 1 2 1 2 2-1 0-1-1-2-2Zm36-1c0-1-1-2-1-3l2 2 1 3v1h-1l-1-3Zm-39-3-1-1 1 1c1 1 2 1 2 2-1 0-1-1-2-2Zm-4-5-2-3c1 0 2 1 3 3l2 3c-1 0-2-1-3-3Zm40 0c-1 0-1-1-1-2l1 1 1 2v1h-1v-2Zm242-3-2-5v-1h1l2 6 3 5c-1 0-2-2-4-5Zm76 1-1-1 6 1h8l1 1h-6c-4 0-7 0-8-1Zm-5-3-2-2 2 2c2 0 3 1 3 2-1 0-2-1-3-2Zm26 1c1-1 3-2 4-2h2l-2 1c-1 0-3 1-4 1l-3 1 3-1Zm-383-2-1-2v-1h1l1 2 1 3c-1 0-1-1-2-2Zm40-3c-1-2-1-3-1-4h1l1 3c1 2 1 3 1 4h-1l-1-3Zm308-4c-4-6-9-14-9-18l-1-3 2 6c3 6 5 9 11 17l3 4c-1 0-3-3-6-6Zm43 6v-1l3-1 3-1-1 1s-2 1-3 1l-2 1Zm60 0c0-1 1-1 2-2l2-1-2 1c-1 1-1 2-2 2Zm-53-3c0-1 2-1 4-2l3-2c0 1-6 4-7 4Zm59-5c2-3 4-5 4-6h1l-3 4c-2 3-4 5-4 6h-1l3-4Zm-460 1c-1 0-1-1-1-2l1 1 1 2v1h-1v-2Zm284-1-1-3v-1h1l1 3c1 2 1 3 1 4h-1l-1-3Zm125 1c0-1 2-1 3-2l3-1-2 1c-2 1-3 2-3 2h-1Zm-369-5c-1-2-1-4-1-5v-1l2 4c0 3 1 6 1 6h-1l-1-4Zm375 2c0-1 1-2 3-2l3-2c0 1-1 2-3 3l-3 1Zm-419-6c-1-2-1-4-1-5h1l1 4c0 2 1 4 1 4h-1l-1-3Zm426 2c0-1 1-1 2-2l2-1c0 1-1 1-2 2l-2 1Zm44-2c5-9 9-15 10-15l-1 1c-2 5-9 15-10 15l1-1Zm-185-1c-1-2-1-4-1-6l-1-3 2 4c0 2 1 5 1 5l-1 2v-2Zm148-2c1 0 2-2 4-2l2-1-2 2c-2 0-3 2-4 2l-2 1 2-2Zm-391-2v-1l1 1v2h-1v-2Zm398-2 8-6c3-3 12-11 18-17l10-11-2 3c-8 10-28 28-34 31l-1 1 1-1Zm-399-10v-9l1 4v9l-1 5v-9Zm-44 5c-1-1-1-5-1-7l-1-5 2 6c0 4 1 7 1 7l-1 1v-2Zm285-2v-1l1 1v2h-1v-2Zm-1-7c-1-7-1-17 0-21l1-3v29h-1v-5Zm202-1 3-7h1v1l-3 6c-2 3-3 6-4 6l3-6Zm-141-2c-1-3-1-6-1-7h1l1 7c1 3 1 6 1 7h-1l-1-7Zm-348-12v-7l1 3v8l-1 4v-8Zm48 5v-1l1 1v2h-1v-2Zm445 1s1-2 1-4l2-3v1c0 1-1 3-1 4l-2 3v-1Zm-444-4c0-2 5-11 8-13l2-2-2 3c-2 2-4 6-6 9l-2 5v-2Zm296-5c0-3-1-6-1-6h1l1 6c1 3 1 5 1 6h-1l-1-6Zm153-6c0-3 1-8 1-10l1-4-1 7c0 4-1 8-1 10l-1 2 1-5Zm-16 3c0-1 1-1 2-2l2-1-2 1c-1 1-1 2-2 2Zm6-8c2-3 4-5 4-6h1l-3 4c-2 3-4 5-4 6h-1l3-4Zm-487 1v-2l1 1v2l-1 2v-3Zm59-1c1 0 2-1 3-2l2-1c0 1-1 2-3 2l-2 2v-1Zm229 0c0-1 1-3 2-4l1-2v1s-1 2-1 3l-2 3v-1Zm52-3-1-3h1l1 3c1 1 1 2 1 3h-1l-1-3Zm-339-1c0-1 0-3 1-4l1-1v1c0 1-1 3-1 4l-1 3v-3Zm67-1c0-1 1-1 2-1h2l-2 1c-1 1-2 1-2 1h-1l1-1Zm7-3c1 0 3-1 5-1l4-1-4 1c-2 1-4 2-5 2h-1l1-1Zm262-1c0-1-1-3-3-5l-2-3h1c1 0 5 6 6 8v2h-1l-1-2Zm156 0c1-1 1-3 2-3v1s-1 1-2 3l-1 2 1-3Zm-200-1c0-2 2-4 3-5l2-2v1s-1 2-3 4l-3 4 1-2Zm-206-1h2v1h-3l1-1Zm7-1c2-1 5-1 7-1h4l-5 1c-2 0-6 1-7 1h-3l4-1Zm-89-3c0-1 1-3 1-3l1-1-1 3-1 3h-1l1-2Zm102 1h2v1h-3l1-1Zm392-1-1-2h3v1c0 1 0 2-1 2l-1 1v-2Zm-382 0c2 0 8-1 12-1l8-1-4 1c-2 0-7 1-12 1l-8 1 4-1Zm22-3h2v1h-3l1-1Zm6-1c2-1 4-2 5-2h1l-3 2c-2 0-4 1-5 1h-1l3-1Zm155 1c0-1 1-1 2-2l2-1-2 1c-1 1-1 2-2 2Zm29-2c-1-1-3-2-5-3l-3-1v-1h1l3 1c1 1 3 3 4 3l2 2-1 1-1-2Zm-320-4c1-2 3-5 4-5l1-1-3 5c-2 3-3 5-4 5l2-4Zm142 3c1-1 8-6 9-6h1l-2 2c-2 0-4 2-5 3l-3 1Zm154-2 2-1 1 1-2 1-2 1 1-2Zm8-3h5l3 1h-10l2-1Zm-149-6c2-3 5-6 5-9l2-3v1c0 2-4 10-7 13l-3 3 3-5Zm-147-3 3-4 1 1-3 4-4 4 3-5Zm6-6 3-3 4-2-3 3c-2 2-4 3-4 3v-1Zm10-8c2-2 4-4 5-4l2-1c0 1-2 2-5 4l-5 4 3-3Zm136-2c0-2-1-5 0-5l1 4c1 2 1 5 1 5l-1 1-1-5Zm-128-3c0-1 1-2 3-2l3-2c0 1-1 2-3 3l-3 1Zm125-6c-1-1-4-5-7-7l-5-5c2 0 11 9 13 12l1 3c-1 0-2-1-2-3Zm-117 1c2-1 3-2 3-2h1c0 1-2 1-3 2l-2 1 1-1Zm216-2h6l3 1h-12l3-1Zm-210-1c2-1 3-2 3-2h1c0 1-2 1-3 2l-2 1 1-1Zm199 0h2l2 1h-5l1-1Zm24 0h2l2 1h-5l1-1Zm-30-1-2-1h1c1 0 2 1 4 1l2 1h-2c-1 0-2-1-3-1Zm36 0c1 0 3-1 5-1l3-1-2 1c-1 0-3 1-5 1l-3 1 2-1Zm-220-3c1-1 3-2 3-2h1l-1 1s-2 1-3 1l-2 1 2-1Zm172-2c-3-1-5-2-6-3v-1l6 3c3 2 6 3 6 4h-1s-3-1-5-3Zm56 3c0-1 2-1 4-2l3-2c0 1-6 4-7 4Zm-219-5c1-1 2-1 3-1h2l-2 1c-2 0-3 1-3 1h-1l1-1Zm228 0c1-1 4-3 7-5l5-4v1c0 1-11 8-12 9h-1l1-1Zm-152-4-3-1 2 1c1 0 3 1 4 1l2 1h-1c-1 0-3-1-4-2Zm74-2c-5-4-11-12-14-17l-2-3c1 0 2 2 4 5 3 4 10 12 16 17l3 2h-1l-6-4Zm-137 2c1 0 2-1 3-1h2l-2 1c-2 0-3 1-4 1h-1l2-1Zm7-2h2v1h-3l1-1Zm6-1c3-2 37-2 40 0l3 1-5-1c-7-1-28-1-35 0l-5 1 2-1Zm215-3s0-1 1-2h2v1l-1 1-2 1v-1Zm6-7 4-4-2 3-4 4-1 2 3-5Zm6-8c0-2 1-3 2-3l-1 3c-1 2-2 3-3 3l2-3Zm-121-5c0-1-1-2-1-3l2 2 1 3v1h-1l-1-3Zm124-1c0-1 1-3 1-4l1-1v1c0 1-1 3-2 4l-1 3 1-3Zm-127-6c0-2-1-4-1-4v-1l2 3c0 3 1 5 1 5h-1l-1-3Zm131-7c1-6 1-23 0-29l-1-4 1 2c2 3 2 30 0 33l-1 3 1-5Zm-133-2v-1l1 1v2h-1v-2Zm-1-12v-9l1 4v9l-1 5v-9Zm1-14v-1l1 1v2h-1v-2Zm1-5c1-2 1-4 2-4l1-1-1 4c-1 2-1 4-2 4v1-4Zm128-7-1-3h1l1 3c1 1 1 2 1 3h-1l-1-3Zm-124-3s1-1 2-3l1-1-1 2c-1 1-1 3-2 3v-1Zm118-8-3-5c1 0 2 2 4 5l3 4v1h-1l-3-5Zm-114 1c1-1 1-2 2-2l-1 2c-1 1-1 2-2 2l1-2Zm2-3c0-1 1-1 2-2l2-1-2 1c-1 1-1 2-2 2Zm8-9c2-3 5-5 5-5l-4 5c-3 3-6 5-6 5l5-5Zm95 0-4-5 5 4c3 3 5 6 5 6s-3-2-6-5Zm-86-7c3-4 13-9 15-9h2l-6 2c-3 2-7 4-10 6l-4 3 3-2Zm78-1-3-2 3 2c2 1 3 2 3 3 0 0-2-1-3-3Zm-10-5-6-3h1c1 0 11 5 11 6 0 0-3-1-6-3Zm-47-5c1 0 3-1 5-1h2l-3 1c-1 0-3 1-4 1h-2l2-1Zm32 0-2-1h2c1 0 3 1 5 1l2 1h-2c-2 0-4-1-5-1Zm-25-2v-1h4v2h-4v-1Zm18 0v-1h4v2h-4v-1Z"/>
  <path fill="#a4a4a4" d="M865 1031h2v1h-3l1-1Zm-512-6h2v1h-3l1-1Zm19 0h3l2 1h-6l1-1Zm-20-19h2l2 1h-5l1-1Zm22 0h2v1h-3l1-1Zm-98-13-1-2 2 1c1 1 2 2 2 3-1 0-2-1-3-2Zm348-5v-2l1 1v2l-1 2v-3Zm-358-6-1-1 1 1c1 1 2 1 2 2-1 0-1-1-2-2Zm531-2-2-3 3 2c2 2 3 4 3 4s-2-1-4-3Zm195 3s1-2 3-4l4-2-3 3c-2 2-4 3-4 3Zm-18-9c0-1 1-1 2-2l2-1-2 1c-1 1-1 2-2 2Zm-506-14c3-4 6-6 6-6l-5 6c-3 3-6 5-6 5l5-5Zm22 4c0-1 1-1 2-2l2-1-2 1c-1 1-1 2-2 2Zm134-5v-3l1 1v3l-1 2v-3Zm-1-20v-2l1 1v2l-1 2v-3Zm-1-19v-2l1 1v2l-1 2v-3Zm123-5v-1l1 1v2h-1v-2Zm-124-15v-2l1 1v2l-1 2v-3Zm-1-20v-2l1 1v2l-1 2v-3Zm-1-19v-4l1 2v4l-1 2v-4Zm-95-13v-1l1 1v2h-1v-2Zm515-1v-1l1 1v2h-1v-2Zm-421-6v-3l1 1v4l-1 2v-4Zm-93-1v-1l1 1v2h-1v-2Zm19 0v-1l1 1v2h-1v-2Zm515 0v-1l1 1v2h-1v-2Zm-19-12v-10l1 5v10l-1 5v-10Zm-514-1v-5l1 2v5l-1 3v-5Zm19-6v-9l1 4v9l-1 5v-9Zm72 2v-3l1 1v4l-1 2v-4Zm-91-7v-5l1 2v5l-1 3v-5Zm533-2v-1l1 1v2h-1v-2Zm-20-6v-2l1 1v2l-1 2v-3Zm19-1v-1l1 1v2h-1v-2Zm-442-1v-2l1 1v2l-1 2v-3Zm37-1c1-2 3-3 3-3l-2 3c-1 1-3 2-3 2l2-2Zm-128-5v-1l1 1v2h-1v-2Zm19 0v-1l1 1v2h-1v-2Zm71-9v-1l1 1v2h-1v-2Zm58-7c0-1 2-2 2-2l-1 2c-1 1-3 2-3 2l2-2Zm-59-8v-1l1 1v2h-1v-2Zm-296-6v-2l1 1v2l1-1h2l-2 1c-1 1-1 2-2 2v-3Zm-305-4-1-1h1l1-1v3h-1v-1Zm306-4v-2l1 1v2l-1 2v-3Zm380-5 6-6-5 6c-4 3-7 6-7 6l6-6Zm-673-1c0-1 2-2 2-2l-1 2c-1 1-3 2-3 2l2-2Zm8-7c0-1 2-2 2-2l-1 2c-1 1-3 2-3 2l2-2Zm776 0c0-1 1-1 2-2l2-1-2 1c-1 1-1 2-2 2Zm-515-5c0-1 1-1 2-2l2-1-2 1c-1 1-1 2-2 2Zm-254-1c0-1 1-1 2-2l2-1-2 1c-1 1-1 2-2 2Zm281-3v-1l1 1v2h-1v-2Zm289-4v-1l1 1v2h-1v-2Zm-288-1v-2l1 1v2l-1 2v-3Zm-274 1c0-1 1-1 2-2l2-1-2 1c-1 1-1 2-2 2Zm228 0c0-1 1-1 2-2l2-1-2 1c-1 1-1 2-2 2Zm525-6c0-1 2-2 2-2l-1 2c-1 1-3 2-3 2l2-2Zm-75-2 4-4-3 4c-2 1-4 3-4 3l3-3Zm-669 0c0-1 2-2 2-2l-1 2c-1 1-3 2-3 2l2-2Zm227-1c0-1 1-1 2-2l2-1-2 1c-1 1-1 2-2 2Zm325-4v-2l1 1v2l-1 2v-3Zm199 0c1-2 3-3 3-3l-2 3c-1 1-3 2-3 2l2-2Zm-744-1c1-2 3-3 3-3l-2 3c-1 1-3 2-3 2l2-2Zm230-5 4-4-3 4c-2 1-4 3-4 3l3-3Zm191-1-1-1 1 1c1 1 2 1 2 2-1 0-1-1-2-2Zm534 0-1-1 1 1c1 1 2 1 2 2-1 0-1-1-2-2Zm-947-1c1-2 3-3 3-3l-2 3c-1 1-3 2-3 2l2-2Zm536-4v-3l1 1v3l-1 2v-3Zm-528-3c0-1 1-1 2-2l2-1-2 1c-1 1-1 2-2 2Zm281-7s0-1 1-1l1-1-1 1v2h-1v-1Zm-271-2c0-1 2-2 2-2l-1 2c-1 1-3 2-3 2l2-2Zm517-1v-2l1 1v2l-1 2v-3Zm-510-5c1-2 3-3 3-3l-2 3c-1 1-3 2-3 2l2-2Zm291-6h2v1h-3l1-1Zm218-1v-1l1 1v2h-1v-2Zm-211 0h2v1h-3l1-1Zm25 0h2v1h-3l1-1Zm-315 0c0-1 1-1 2-2l2-1-2 1c-1 1-1 2-2 2Zm10-9c0-1 2-2 2-2l-1 2c-1 1-3 2-3 2l2-2Zm4-3s1-2 3-4l4-2-3 3c-2 2-4 3-4 3Zm214-5v-1l1 1v2h-1v-2Zm43 0v-2h1v1l-1 1-1 2 1-2Zm19-2h2l2 1h-5l1-1Zm24 0h3l2 1h-6l1-1Zm-289-3c0-1 1-1 2-2l2-1-2 1c-1 1-1 2-2 2Zm849-8h4l3 1h-9l2-1Zm18 0h6l4 1h-13l3-1Zm-856-2c0-1 2-2 2-2l-1 2c-1 1-3 2-3 2l2-2Zm820 1h2v1h-3l1-1Zm-814-6s1-2 3-4l4-2-3 3c-2 2-4 3-4 3Zm455-4v-1l1 1v2h-1v-2Zm-446-4s1-2 3-4l4-2-3 3c-2 2-4 3-4 3Zm184-4v-1l1 1v2h-1v-2Zm261-4v-1l1 1v2h-1v-2Zm-434-2c0-1 1-1 2-2l2-1-2 1c-1 1-1 2-2 2Zm433-8v-1l1 1v2h-1v-2Zm-422-2c0-1 2-2 2-2l-1 2c-1 1-3 2-3 2l2-2Zm421-6v-1l1 1v2h-1v-2Zm-410-4c0-1 2-2 2-2l-1 2c-1 1-3 2-3 2l2-2Zm158-7v-1l1 1v2h-1v-2Zm-151 1s1-2 3-4l4-2-3 3c-2 2-4 3-4 3Zm209-2s0-1 1-1l1-1-1 1v2h-1v-1Zm-57-4v-1l1 1v2h-1v-2Zm450-3-1-1 1 1c1 1 2 1 2 2-1 0-1-1-2-2Zm-588-4c0-1 2-2 2-2l-1 2c-1 1-3 2-3 2l2-2Zm575-9-2-2 2 2c2 1 3 2 3 3-1 0-2-1-3-3Zm-564-1c0-1 2-2 2-2l-1 2c-1 1-3 2-3 2l2-2Zm634-2-3-4 4 3c2 3 4 5 4 5s-2-2-5-4Zm-505-4v-7l1 3v7l-1 4v-7Zm-116-6 6-6-5 6c-4 3-7 6-7 6l6-6Zm182 1v-1l1 1v2h-1v-2Zm430-1-1-1 1 1c1 1 2 1 2 2-1 0-1-1-2-2Zm-596-17 4-4-3 4c-2 1-4 3-4 3l3-3Zm169 0v-1l1 1v2h-1v-2ZM78 542c-1 0-1-3-1-5v-5h2c2 0 3 1 4 2l1 1v1h-1v-2h-2v7h2v-2h1v1l-1 1c-1 2-4 3-5 1Zm185-2c1-2 3-3 3-3l-2 3c-1 1-3 2-3 2l2-2Zm157-4v-2l1 1v2l-1 2v-3Zm-147-7c1-2 3-3 3-3l-2 3c-1 1-3 2-3 2l2-2Zm136-22-1-1 1 1c1 1 2 1 2 2-1 0-1-1-2-2Zm-11-11-5-6 6 5c3 4 6 7 6 7s-3-3-7-6Zm533 4c1-2 3-3 3-3l-2 3c-1 1-3 2-3 2l2-2Zm-196-1v-1l1 1v2h-1v-2Zm202-5c0-1 2-2 2-2l-1 2c-1 1-3 2-3 2l2-2Zm-551-9-1-2 2 1c1 1 2 2 2 3-1 0-2-1-3-2Zm380-19h4l2 1h-8l2-1Zm-420-14-1-1 1 1c1 1 2 1 2 2-1 0-1-1-2-2Zm472-3v-5l1 2v5l-1 3v-5Zm-478-2-1-1 1 1c1 1 2 1 2 2-1 0-1-1-2-2Zm-154-17v-4l1 2v4l-1 2v-4Zm147 0v-3l1 1v3l-1 2v-3Zm-50-27h2v1h-3l1-1Zm-86-2c1-2 3-3 3-3l-2 3c-1 1-3 2-3 2l2-2Zm41-12h2v1h-3l1-1Zm-30-6v-1l1 1c1 0 1 0 1 1h-2v-1Zm671-2c1-1 2-1 3-1h1l-2 1c-1 1-2 1-2 1h-1l1-1Zm13 0-2-1h1c1 0 2 0 3 1l2 1h-1c-1 0-2-1-3-1Zm-725-25-1-2 2 1c1 1 2 2 2 3-1 0-2-1-3-2Zm298 0h2v1h-3l1-1Zm19 0h2v1h-3l1-1Zm-331-14-8-8 8 8 9 9-9-9Zm278-3-4-5 5 4c3 3 5 6 5 6s-3-2-6-5Zm-291-11-1-1 1 1c1 1 2 1 2 2-1 0-1-1-2-2Zm414-5c0-1 2-2 2-2l-1 2c-1 1-3 2-3 2l2-2Zm8-7c1-2 3-3 3-3l-2 3c-1 1-3 2-3 2l2-2Zm-72-8h4l2 1h-8l2-1Zm81-2c0-1 2-2 2-2l-1 2c-1 1-3 2-3 2l2-2Zm-100-9-1-1 1 1c1 1 2 1 2 2-1 0-1-1-2-2Zm87-19c0-1 1-1 2-2l2-1-2 1c-1 1-1 2-2 2Zm-402-8v-6l1 3v6l-1 3v-6Zm-45 2v-1l1 1v2h-1v-2Zm285-3v-2l1 1v2l-1 2v-3Zm172 1s3-4 8-8l8-7-8 7c-4 5-8 8-8 8Zm-110-4v-1l1 1v2h-1v-2Zm-63-4v-2l1 1v2l-1 2v-3Zm62-1v-1l1 1v2h-1v-2Zm-348-10v-7l1 3v8l-1 4v-8Zm286-1v-3l1 1v3l-1 2v-3Zm190 2c0-1 1-1 2-2l2-1-2 1c-1 1-1 2-2 2Zm-189-9v-1l1 1v2h-1v-2Zm211-2v-1l1 1v2h-1v-2Zm1-8v-2l1 1v2l-1 2v-3Zm-429-1 1-1h1v1h-2l-1 1 1-1Zm26-7h2v1h-3l1-1Zm6-1h2l2 1h-5l1-1Zm398-1v-1h2v1c-1 1-1 1-2 1v-1Zm-382-1h2l2 1h-5l1-1Zm10-1h3l2 1h-6l1-1Zm-122-1s0-1 1-1l1-1-1 1v2h-1v-1Zm129 0h2v1h-3l1-1Zm27-11s1-2 3-4l4-2-3 3c-2 2-4 3-4 3Zm-126-22c0-1 1-1 2-2l2-1-2 1c-1 1-1 2-2 2Zm230-11h6l3 1h-12l3-1Zm-40-14-1-1 1 1c1 1 2 1 2 2-1 0-1-1-2-2Zm82 2c0-1 1-1 2-2l2-1-2 1c-1 1-1 2-2 2Zm-206-5h2l2 1h-5l1-1Zm35 0h2v1h-3l1-1Zm-27-1h2v1h-3l1-1Zm20 0h2v1h-3l1-1Zm89-1-1-2 2 1c1 1 2 2 2 3-1 0-2-1-3-2Zm96 1c0-1 1-1 2-2l2-1-2 1c-1 1-1 2-2 2Zm-115-43v-2l1 1v2l-1 2v-3Zm0-12v-3l1 1v3l-1 2v-3Zm135-3v-1l1 1v2h-1v-2Zm-5-19-1-1 1 1 1 1v1h-1v-2ZM326 64c0-1 2-2 2-2l-1 2c-1 1-3 2-3 2l2-2Zm101 0-1-2 2 1c1 1 2 2 2 3-1 0-2-1-3-2Zm-95-6c0-1 2-2 2-2l-1 2c-1 1-3 2-3 2l2-2Zm89-1-1-1 1 1c1 1 2 1 2 2-1 0-1-1-2-2Zm-55-16v-1h2v2h-2v-1Zm20 0v-1h2v2h-2v-1Z"/>
  <path fill="#cbcbcb" d="M77 540v-3l1 1v3l-1 2v-3Z"/>
</svg>